SplineFontDB: 3.0
FontName: StickNoBills-Oblique
FullName: Stick No Bills-Oblique
FamilyName: Stick No Bills
Weight: Regular
Copyright: Copyright (c) 2013, STICK NO BILLS\nCopyright (c) 2015, mooniak\n
Version: 001.000
ItalicAngle: 0
UnderlinePosition: -102
UnderlineWidth: 51
Ascent: 819
Descent: 205
InvalidEm: 0
sfntRevision: 0x00010000
LayerCount: 2
Layer: 0 1 "Back" 1
Layer: 1 1 "Fore" 0
XUID: [1021 811 1469596780 9187303]
FSType: 0
OS2Version: 4
OS2_WeightWidthSlopeOnly: 0
OS2_UseTypoMetrics: 1
CreationTime: 1423989519
ModificationTime: 1427116821
PfmFamily: 17
TTFWeight: 400
TTFWidth: 5
LineGap: 94
VLineGap: 0
Panose: 2 0 5 3 0 0 0 0 0 0
OS2TypoAscent: 819
OS2TypoAOffset: 0
OS2TypoDescent: -205
OS2TypoDOffset: 0
OS2TypoLinegap: 94
OS2WinAscent: 785
OS2WinAOffset: 0
OS2WinDescent: 205
OS2WinDOffset: 0
HheadAscent: 785
HheadAOffset: 0
HheadDescent: -205
HheadDOffset: 0
OS2SubXSize: 665
OS2SubYSize: 716
OS2SubXOff: 0
OS2SubYOff: 143
OS2SupXSize: 665
OS2SupYSize: 716
OS2SupXOff: 0
OS2SupYOff: 491
OS2StrikeYSize: 51
OS2StrikeYPos: 265
OS2CapHeight: 0
OS2XHeight: 0
OS2Vendor: 'PfEd'
OS2CodePages: 00000001.00000000
OS2UnicodeRanges: 00000002.00000000.00000000.00000000
Lookup: 258 0 0 "'kern' Horizontal Kerning lookup 0" { "'kern' Horizontal Kerning lookup 0 kerning class 0"  "'kern' Horizontal Kerning lookup 0 kerning class 1"  "'kern' Horizontal Kerning lookup 0 kerning class 2"  "'kern' Horizontal Kerning lookup 0 kerning class 3"  "'kern' Horizontal Kerning lookup 0 kerning class 4"  "'kern' Horizontal Kerning lookup 0 kerning class 5"  "'kern' Horizontal Kerning lookup 0 kerning class 6"  } ['kern' ('DFLT' <'dflt' > 'hani' <'dflt' > 'latn' <'dflt' > ) ]
MarkAttachClasses: 1
DEI: 91125
KernClass2: 4 2 "'kern' Horizontal Kerning lookup 0 kerning class 0"
 1 W
 1 V
 1 Y
 1 A
 0 {} 0 {} 0 {} -89 {} 0 {} -88 {} 0 {} -76 {}
KernClass2: 2 4 "'kern' Horizontal Kerning lookup 0 kerning class 1"
 1 A
 1 V
 1 W
 1 Y
 0 {} 0 {} 0 {} 0 {} 0 {} -73 {} -73 {} -61 {}

StartChar: .notdef
Encoding: 65536 -1 0
Width: 374
Flags: W
LayerCount: 2
Back
Fore
SplineSet
34 0 m 1,0,-1
 34 682 l 1,1,-1
 306 682 l 1,2,-1
 306 0 l 1,3,-1
 34 0 l 1,0,-1
68 34 m 1,4,-1
 272 34 l 1,5,-1
 272 648 l 1,6,-1
 68 648 l 1,7,-1
 68 34 l 1,4,-1
EndSplineSet
EndChar

StartChar: glyph4
Encoding: 33 33 4
Width: 210
Flags: W
LayerCount: 2
Back
Fore
SplineSet
39.5 53.5 m 128,-1,1
 45 85 45 85 70.5 107 c 128,-1,2
 96 129 96 129 127.5 129 c 128,-1,3
 159 129 159 129 177 107 c 128,-1,4
 195 85 195 85 189.5 53 c 128,-1,5
 184 21 184 21 158.5 -0.5 c 128,-1,6
 133 -22 133 -22 101.5 -22 c 128,-1,7
 70 -22 70 -22 52 0 c 128,-1,0
 34 22 34 22 39.5 53.5 c 128,-1,1
71 166 m 1,8,-1
 165 700 l 1,9,-1
 294 700 l 1,10,-1
 200 166 l 1,11,-1
 71 166 l 1,8,-1
EndSplineSet
EndChar

StartChar: glyph5
Encoding: 34 34 5
Width: 359
Flags: W
LayerCount: 2
Back
Fore
SplineSet
235 465 m 1,0,-1
 108 465 l 1,1,-1
 156 736 l 1,2,-1
 283 736 l 1,3,-1
 235 465 l 1,0,-1
415 465 m 1,4,-1
 288 465 l 1,5,-1
 336 736 l 1,6,-1
 463 736 l 1,7,-1
 415 465 l 1,4,-1
EndSplineSet
EndChar

StartChar: glyph6
Encoding: 35 35 6
Width: 888
Flags: W
LayerCount: 2
Back
Fore
SplineSet
339 22 m 1,0,-1
 218 22 l 1,1,-1
 272 176 l 1,2,-1
 132 176 l 1,3,-1
 178 297 l 1,4,-1
 315 297 l 1,5,-1
 352 404 l 1,6,-1
 206 404 l 1,7,-1
 250 525 l 1,8,-1
 396 525 l 1,9,-1
 450 682 l 1,10,-1
 571 682 l 1,11,-1
 515 524 l 1,12,-1
 621 524 l 1,13,-1
 676 682 l 1,14,-1
 797 682 l 1,15,-1
 741 524 l 1,16,-1
 879 524 l 1,17,-1
 839 403 l 1,18,-1
 699 404 l 1,19,-1
 661 296 l 1,20,-1
 804 296 l 1,21,-1
 765 175 l 1,22,-1
 619 176 l 1,23,-1
 565 22 l 1,24,-1
 445 22 l 1,25,-1
 498 176 l 1,26,-1
 393 176 l 1,27,-1
 339 22 l 1,0,-1
578 404 m 1,28,-1
 473 404 l 1,29,-1
 435 297 l 1,30,-1
 541 296 l 1,31,-1
 578 404 l 1,28,-1
EndSplineSet
EndChar

StartChar: glyph7
Encoding: 36 36 7
Width: 501
Flags: W
LayerCount: 2
Back
Fore
SplineSet
343 428 m 1,0,1
 394 406 394 406 412 394 c 0,2,3
 423 387 423 387 431 381.5 c 128,-1,4
 439 376 439 376 448.5 368 c 128,-1,5
 458 360 458 360 465.5 352.5 c 128,-1,6
 473 345 473 345 480.5 335.5 c 128,-1,7
 488 326 488 326 493.5 316.5 c 128,-1,8
 499 307 499 307 503.5 294.5 c 128,-1,9
 508 282 508 282 509.5 269 c 128,-1,10
 511 256 511 256 511 241 c 128,-1,11
 511 226 511 226 508 209 c 0,12,13
 497 145 497 145 450 90.5 c 128,-1,14
 403 36 403 36 341 12 c 1,15,-1
 331 -47 l 1,16,-1
 260 -47 l 1,17,-1
 268 -3 l 1,18,-1
 267 -3 l 1,19,-1
 290 127 l 1,20,21
 314 130 314 130 337 148.5 c 128,-1,22
 360 167 360 167 366 203 c 0,23,24
 374 250 374 250 317 280 c 1,25,-1
 343 428 l 1,0,1
345 750 m 1,26,-1
 315 578 l 1,27,-1
 313 568 l 1,28,29
 296 563 296 563 281 547 c 128,-1,30
 266 531 266 531 262 513 c 0,31,32
 256 478 256 478 293 454 c 1,33,-1
 266 302 l 1,34,35
 231 316 231 316 218 323 c 0,36,37
 163 352 163 352 139 393.5 c 128,-1,38
 115 435 115 435 128 508 c 0,39,40
 139 571 139 571 176.5 613.5 c 128,-1,41
 214 656 214 656 262 679 c 1,42,-1
 274 750 l 1,43,-1
 345 750 l 1,26,-1
459 682 m 1,44,45
 498 660 498 660 519.5 619.5 c 128,-1,46
 541 579 541 579 541 553 c 1,47,-1
 403 510 l 1,48,49
 404 520 404 520 402 528 c 128,-1,50
 400 536 400 536 397 542 c 128,-1,51
 394 548 394 548 390.5 552.5 c 128,-1,52
 387 557 387 557 383 560 c 128,-1,53
 379 563 379 563 375.5 565 c 128,-1,54
 372 567 372 567 370 567 c 2,55,-1
 368 568 l 1,56,-1
 391 700 l 1,57,-1
 392 700 l 1,58,-1
 400 750 l 1,59,-1
 471 750 l 1,60,-1
 459 682 l 1,44,45
235 124 m 1,61,-1
 205 -47 l 1,62,-1
 134 -47 l 1,63,-1
 144 13 l 1,64,65
 100 35 100 35 76 79 c 128,-1,66
 52 123 52 123 58 158 c 1,67,-1
 193 203 l 1,68,69
 191 187 191 187 194.5 173.5 c 128,-1,70
 198 160 198 160 204.5 152 c 128,-1,71
 211 144 211 144 218 138 c 128,-1,72
 225 132 225 132 230 129 c 2,73,-1
 235 127 l 1,74,-1
 235 124 l 1,61,-1
EndSplineSet
EndChar

StartChar: Percent_sign
Encoding: 37 37 8
Width: 629
Flags: W
LayerCount: 2
Back
Fore
SplineSet
156 -23 m 1,0,-1
 461 716 l 1,1,-1
 587 716 l 1,2,-1
 283 -23 l 1,3,-1
 156 -23 l 1,0,-1
127 575 m 128,-1,5
 135 620 135 620 172 651.5 c 128,-1,6
 209 683 209 683 254 683 c 128,-1,7
 299 683 299 683 325 651.5 c 128,-1,8
 351 620 351 620 343 575 c 128,-1,9
 335 530 335 530 298 498.5 c 128,-1,10
 261 467 261 467 216 467 c 128,-1,11
 171 467 171 467 145 498.5 c 128,-1,4
 119 530 119 530 127 575 c 128,-1,5
408 117 m 0,12,13
 413 147 413 147 431.5 171.5 c 128,-1,14
 450 196 450 196 477.5 210.5 c 128,-1,15
 505 225 505 225 535 225 c 0,16,17
 580 225 580 225 606 193.5 c 128,-1,18
 632 162 632 162 624 117 c 0,19,20
 618 87 618 87 599.5 62.5 c 128,-1,21
 581 38 581 38 553.5 23.5 c 128,-1,22
 526 9 526 9 497 9 c 0,23,24
 452 9 452 9 426 40.5 c 128,-1,25
 400 72 400 72 408 117 c 0,12,13
EndSplineSet
EndChar

StartChar: glyph9
Encoding: 38 38 9
Width: 687
Flags: W
LayerCount: 2
Back
Fore
SplineSet
359 578 m 2,0,1
 356 577 356 577 351 574.5 c 128,-1,2
 346 572 346 572 337 561.5 c 128,-1,3
 328 551 328 551 326 536 c 0,4,5
 322 524 322 524 325 514.5 c 128,-1,6
 328 505 328 505 330 501.5 c 128,-1,7
 332 498 332 498 337.5 494 c 128,-1,8
 343 490 343 490 343 489 c 2,9,-1
 304 269 l 1,10,-1
 285 297 l 1,11,12
 275 289 275 289 268 283.5 c 128,-1,13
 261 278 261 278 252 268.5 c 128,-1,14
 243 259 243 259 237.5 250.5 c 128,-1,15
 232 242 232 242 226.5 230 c 128,-1,16
 221 218 221 218 219 204 c 0,17,18
 213 171 213 171 229.5 153 c 128,-1,19
 246 135 246 135 281 135 c 1,20,-1
 258 3 l 1,21,22
 148 3 148 3 97.5 61.5 c 128,-1,23
 47 120 47 120 64 214 c 0,24,25
 75 280 75 280 118 328.5 c 128,-1,26
 161 377 161 377 222 404 c 1,27,28
 204 419 204 419 193 458 c 128,-1,29
 182 497 182 497 187 528 c 0,30,31
 193 563 193 563 209 591.5 c 128,-1,32
 225 620 225 620 249.5 642 c 128,-1,33
 274 664 274 664 307 679 c 128,-1,34
 340 694 340 694 381 702 c 1,35,-1
 359 578 l 2,0,1
440 700 m 1,36,37
 517 686 517 686 549.5 640 c 128,-1,38
 582 594 582 594 569 520 c 0,39,40
 559 467 559 467 516.5 423 c 128,-1,41
 474 379 474 379 427 361 c 1,42,-1
 480 280 l 1,43,44
 504 309 504 309 516 345 c 1,45,-1
 655 345 l 1,46,47
 625 252 625 252 552 180 c 1,48,-1
 664 16 l 1,49,-1
 467 16 l 1,50,-1
 430 72 l 1,51,52
 379 32 379 32 320 16 c 1,53,-1
 347 168 l 1,54,55
 353 172 353 172 364 180 c 1,56,-1
 352 198 l 1,57,-1
 403 486 l 2,58,59
 404 487 404 487 408.5 490 c 128,-1,60
 413 493 413 493 414.5 494.5 c 128,-1,61
 416 496 416 496 420 499 c 128,-1,62
 424 502 424 502 426 505 c 128,-1,63
 428 508 428 508 431 512.5 c 128,-1,64
 434 517 434 517 435.5 522 c 128,-1,65
 437 527 437 527 438 533 c 0,66,67
 442 551 442 551 438.5 562 c 128,-1,68
 435 573 435 573 420 582 c 1,69,-1
 440 700 l 1,36,37
EndSplineSet
EndChar

StartChar: glyph10
Encoding: 39 39 10
Width: 187
Flags: W
LayerCount: 2
Back
Fore
SplineSet
239 465 m 1,0,-1
 112 465 l 1,1,-1
 160 736 l 1,2,-1
 287 736 l 1,3,-1
 239 465 l 1,0,-1
EndSplineSet
EndChar

StartChar: glyph11
Encoding: 40 40 11
Width: 330
Flags: W
LayerCount: 2
Back
Fore
SplineSet
361 746 m 1,0,-1
 344 649 l 1,1,2
 310 631 310 631 290.5 602 c 128,-1,3
 271 573 271 573 261 521 c 2,4,-1
 206 208 l 1,5,-1
 205 202 l 2,6,7
 195 155 195 155 199 124 c 128,-1,8
 203 93 203 93 212 78 c 128,-1,9
 221 63 221 63 238 51 c 1,10,-1
 221 -47 l 1,11,12
 157 -20 157 -20 122.5 18 c 128,-1,13
 88 56 88 56 82 98 c 128,-1,14
 76 140 76 140 83 189 c 2,15,-1
 140 510 l 2,16,17
 157 608 157 608 211 660.5 c 128,-1,18
 265 713 265 713 361 746 c 1,0,-1
EndSplineSet
EndChar

StartChar: glyph12
Encoding: 41 41 12
Width: 330
Flags: W
LayerCount: 2
Back
Fore
SplineSet
233 746 m 1,0,-1
 214 649 l 1,1,2
 242 631 242 631 251.5 602 c 128,-1,3
 261 573 261 573 253 521 c 2,4,-1
 198 208 l 1,5,-1
 197 202 l 2,6,7
 188 155 188 155 174.5 124 c 128,-1,8
 161 93 161 93 146.5 78 c 128,-1,9
 132 63 132 63 110 51 c 1,10,-1
 93 -47 l 1,11,12
 199 -8 199 -8 249 51 c 128,-1,13
 299 110 299 110 313 189 c 2,14,-1
 370 510 l 2,15,16
 375 546 375 546 375.5 573.5 c 128,-1,17
 376 601 376 601 367.5 624.5 c 128,-1,18
 359 648 359 648 348 665.5 c 128,-1,19
 337 683 337 683 318.5 698 c 128,-1,20
 300 713 300 713 279.5 724 c 128,-1,21
 259 735 259 735 233 746 c 1,0,-1
EndSplineSet
EndChar

StartChar: glyph13
Encoding: 42 42 13
Width: 394
Flags: W
LayerCount: 2
Back
Fore
SplineSet
315 478 m 1,0,-1
 244 478 l 1,1,-1
 259 564 l 1,2,-1
 183 517 l 1,3,-1
 152 574 l 1,4,-1
 249 634 l 1,5,-1
 173 697 l 1,6,-1
 225 754 l 1,7,-1
 284 704 l 1,8,-1
 298 785 l 1,9,-1
 369 785 l 1,10,-1
 355 702 l 1,11,-1
 436 755 l 1,12,-1
 467 698 l 1,13,-1
 368 634 l 1,14,-1
 444 572 l 1,15,-1
 393 515 l 1,16,-1
 331 565 l 1,17,-1
 315 478 l 1,0,-1
EndSplineSet
EndChar

StartChar: glyph14
Encoding: 43 43 14
Width: 575
Flags: W
LayerCount: 2
Back
Fore
SplineSet
538 357 m 1,0,-1
 516 230 l 1,1,-1
 391 230 l 1,2,-1
 365 87 l 1,3,-1
 238 87 l 1,4,-1
 264 230 l 1,5,-1
 141 230 l 1,6,-1
 163 357 l 1,7,-1
 286 357 l 1,8,-1
 311 498 l 1,9,-1
 438 498 l 1,10,-1
 413 357 l 1,11,-1
 538 357 l 1,0,-1
EndSplineSet
EndChar

StartChar: glyph15
Encoding: 44 44 15
Width: 264
Flags: W
LayerCount: 2
Back
Fore
SplineSet
173 -23 m 1,0,-1
 46 -23 l 1,1,-1
 110 129 l 1,2,-1
 237 129 l 1,3,-1
 173 -23 l 1,0,-1
EndSplineSet
EndChar

StartChar: glyph16
Encoding: 45 45 16
Width: 416
Flags: W
LayerCount: 2
Back
Fore
SplineSet
429 357 m 1,0,-1
 407 230 l 1,1,-1
 91 230 l 1,2,-1
 113 357 l 1,3,-1
 429 357 l 1,0,-1
EndSplineSet
EndChar

StartChar: glyph17
Encoding: 46 46 17
Width: 250
Flags: W
LayerCount: 2
Back
Fore
SplineSet
59.5 53.5 m 128,-1,1
 65 85 65 85 90.5 107 c 128,-1,2
 116 129 116 129 147.5 129 c 128,-1,3
 179 129 179 129 197 107 c 128,-1,4
 215 85 215 85 209.5 53 c 128,-1,5
 204 21 204 21 178.5 -0.5 c 128,-1,6
 153 -22 153 -22 121.5 -22 c 128,-1,7
 90 -22 90 -22 72 0 c 128,-1,0
 54 22 54 22 59.5 53.5 c 128,-1,1
EndSplineSet
EndChar

StartChar: glyph18
Encoding: 47 47 18
Width: 501
Flags: W
LayerCount: 2
Back
Fore
SplineSet
96 -23 m 1,0,-1
 401 716 l 1,1,-1
 527 716 l 1,2,-1
 223 -23 l 1,3,-1
 96 -23 l 1,0,-1
EndSplineSet
EndChar

StartChar: glyph19
Encoding: 48 48 19
Width: 486
Flags: W
LayerCount: 2
Back
Fore
SplineSet
336 698 m 1,0,-1
 314 573 l 1,1,2
 254 559 254 559 225 398 c 0,3,4
 217 353 217 353 215 339 c 0,5,6
 212 323 212 323 210 311 c 128,-1,7
 208 299 208 299 205.5 283 c 128,-1,8
 203 267 203 267 202 255 c 128,-1,9
 201 243 201 243 199.5 228 c 128,-1,10
 198 213 198 213 198.5 202 c 128,-1,11
 199 191 199 191 200 179 c 128,-1,12
 201 167 201 167 203.5 158.5 c 128,-1,13
 206 150 206 150 210 142.5 c 128,-1,14
 214 135 214 135 220 130.5 c 128,-1,15
 226 126 226 126 234 124 c 1,16,-1
 212 0 l 1,17,18
 196 1 196 1 181.5 4.5 c 128,-1,19
 167 8 167 8 150 18.5 c 128,-1,20
 133 29 133 29 119 45.5 c 128,-1,21
 105 62 105 62 94 89.5 c 128,-1,22
 83 117 83 117 78 152.5 c 128,-1,23
 73 188 73 188 75 239.5 c 128,-1,24
 77 291 77 291 88 353 c 0,25,26
 104 445 104 445 132.5 513.5 c 128,-1,27
 161 582 161 582 196 620.5 c 128,-1,28
 231 659 231 659 265.5 677.5 c 128,-1,29
 300 696 300 696 336 698 c 1,0,-1
396 698 m 1,30,31
 431 696 431 696 459 678 c 128,-1,32
 487 660 487 660 509 620 c 128,-1,33
 531 580 531 580 534 515 c 128,-1,34
 537 450 537 450 522 353 c 0,35,36
 507 267 507 267 482 201.5 c 128,-1,37
 457 136 457 136 431 99.5 c 128,-1,38
 405 63 405 63 374.5 39.5 c 128,-1,39
 344 16 344 16 320.5 8.5 c 128,-1,40
 297 1 297 1 274 0 c 1,41,-1
 296 124 l 1,42,43
 312 128 312 128 326 143.5 c 128,-1,44
 340 159 340 159 349 178 c 128,-1,45
 358 197 358 197 367 228.5 c 128,-1,46
 376 260 376 260 380.5 282 c 128,-1,47
 385 304 385 304 391 339 c 0,48,49
 393 353 393 353 401 398 c 0,50,51
 430 559 430 559 374 573 c 1,52,-1
 396 698 l 1,30,31
EndSplineSet
EndChar

StartChar: glyph20
Encoding: 49 49 20
Width: 266
Flags: W
LayerCount: 2
Back
Fore
SplineSet
194 499 m 1,0,-1
 107 439 l 1,1,-1
 143 640 l 1,2,-1
 229 699 l 1,3,-1
 359 699 l 1,4,-1
 236 0 l 1,5,-1
 106 0 l 1,6,-1
 194 499 l 1,0,-1
EndSplineSet
EndChar

StartChar: glyph21
Encoding: 50 50 21
Width: 480
Flags: W
LayerCount: 2
Back
Fore
SplineSet
469 127 m 1,0,-1
 447 0 l 1,1,-1
 43 0 l 1,2,-1
 65 127 l 1,3,-1
 469 127 l 1,0,-1
316 703 m 1,4,-1
 294 577 l 2,5,6
 293 577 293 577 290.5 576 c 128,-1,7
 288 575 288 575 283 572.5 c 128,-1,8
 278 570 278 570 272.5 566 c 128,-1,9
 267 562 267 562 260.5 555.5 c 128,-1,10
 254 549 254 549 248.5 541.5 c 128,-1,11
 243 534 243 534 238.5 523 c 128,-1,12
 234 512 234 512 232 499 c 1,13,-1
 118 524 l 1,14,15
 131 567 131 567 158.5 605 c 128,-1,16
 186 643 186 643 227.5 670 c 128,-1,17
 269 697 269 697 316 703 c 1,4,-1
349 578 m 1,18,-1
 371 704 l 1,19,-1
 378 704 l 2,20,21
 415 704 415 704 444.5 694.5 c 128,-1,22
 474 685 474 685 492 668.5 c 128,-1,23
 510 652 510 652 523 631 c 128,-1,24
 536 610 536 610 540 587.5 c 128,-1,25
 544 565 544 565 546 542.5 c 128,-1,26
 548 520 548 520 543 501 c 0,27,28
 543 500 543 500 543 499 c 128,-1,29
 543 498 543 498 543 498 c 1,30,31
 539 479 539 479 534.5 462.5 c 128,-1,32
 530 446 530 446 522 431.5 c 128,-1,33
 514 417 514 417 508.5 407 c 128,-1,34
 503 397 503 397 490 385 c 128,-1,35
 477 373 477 373 471.5 367.5 c 128,-1,36
 466 362 466 362 448.5 350 c 128,-1,37
 431 338 431 338 426 335 c 128,-1,38
 421 332 421 332 400 319 c 0,39,40
 334 278 334 278 299 250.5 c 128,-1,41
 264 223 264 223 234 186 c 1,42,-1
 82 186 l 1,43,44
 101 215 101 215 124.5 242 c 128,-1,45
 148 269 148 269 168.5 287.5 c 128,-1,46
 189 306 189 306 211.5 323.5 c 128,-1,47
 234 341 234 341 250 351.5 c 128,-1,48
 266 362 266 362 283 373 c 128,-1,49
 300 384 300 384 305 388 c 0,50,51
 319 398 319 398 342 412 c 128,-1,52
 365 426 365 426 378 434.5 c 128,-1,53
 391 443 391 443 403.5 460 c 128,-1,54
 416 477 416 477 420 499 c 0,55,56
 420 500 420 500 420 501 c 0,57,58
 433 575 433 575 349 578 c 1,18,-1
294 577 m 1024,59,-1
EndSplineSet
EndChar

StartChar: glyph22
Encoding: 51 51 22
Width: 484
Flags: W
LayerCount: 2
Back
Fore
SplineSet
227 537 m 1,0,-1
 132 600 l 1,1,2
 166 644 166 644 214 671 c 128,-1,3
 262 698 262 698 318 698 c 1,4,-1
 296 572 l 1,5,6
 254 569 254 569 227 537 c 1,0,-1
276 122 m 1,7,8
 307 122 307 122 332 146 c 128,-1,9
 357 170 357 170 362 201 c 0,10,11
 367 224 367 224 364.5 240 c 128,-1,12
 362 256 362 256 349 266 c 128,-1,13
 336 276 336 276 309.5 281 c 128,-1,14
 283 286 283 286 238 286 c 1,15,-1
 260 410 l 1,16,17
 319 410 319 410 351.5 420.5 c 128,-1,18
 384 431 384 431 396.5 448.5 c 128,-1,19
 409 466 409 466 415 499 c 0,20,21
 422 536 422 536 403 555 c 128,-1,22
 384 574 384 574 357 574 c 2,23,-1
 353 574 l 1,24,-1
 375 698 l 1,25,26
 423 697 423 697 459 677.5 c 128,-1,27
 495 658 495 658 514 629 c 128,-1,28
 533 600 533 600 540.5 568.5 c 128,-1,29
 548 537 548 537 543 508 c 0,30,31
 531 441 531 441 506.5 402.5 c 128,-1,32
 482 364 482 364 453 350 c 1,33,34
 476 332 476 332 489.5 294 c 128,-1,35
 503 256 503 256 493 199 c 0,36,37
 483 141 483 141 440.5 93.5 c 128,-1,38
 398 46 398 46 348.5 23 c 128,-1,39
 299 0 299 0 257 0 c 2,40,-1
 255 0 l 1,41,-1
 276 122 l 1,7,8
160 160 m 1,42,43
 176 128 176 128 217 125 c 1,44,-1
 195 -1 l 1,45,46
 76 -1 76 -1 43 97 c 1,47,-1
 160 160 l 1,42,43
EndSplineSet
EndChar

StartChar: four
Encoding: 52 52 23
Width: 483
Flags: W
LayerCount: 2
Back
Fore
SplineSet
264 272 m 1,0,-1
 242 145 l 1,1,-1
 52 145 l 1,2,-1
 74 272 l 1,3,-1
 321 598 l 1,4,-1
 278 351 l 1,5,-1
 218 272 l 1,6,-1
 264 272 l 1,0,-1
505 272 m 1,7,-1
 483 145 l 1,8,-1
 429 145 l 1,9,-1
 403 0 l 1,10,-1
 273 0 l 1,11,-1
 397 701 l 1,12,-1
 527 701 l 1,13,-1
 451 272 l 1,14,-1
 505 272 l 1,7,-1
EndSplineSet
EndChar

StartChar: five
Encoding: 53 53 24
Width: 492
Flags: W
LayerCount: 2
Back
Fore
SplineSet
510 574 m 1,0,-1
 272 573 l 1,1,-1
 237 442 l 1,2,3
 259 447 259 447 283 447 c 1,4,-1
 261 324 l 1,5,6
 220 320 220 320 186 286 c 1,7,-1
 88 354 l 1,8,-1
 178 700 l 1,9,-1
 532 700 l 1,10,-1
 510 574 l 1,0,-1
337 447 m 1,11,12
 405 446 405 446 447.5 412 c 128,-1,13
 490 378 490 378 502.5 329.5 c 128,-1,14
 515 281 515 281 505 223 c 0,15,16
 488 122 488 122 415 62 c 128,-1,17
 342 2 342 2 258 0 c 1,18,-1
 280 126 l 1,19,20
 318 133 318 133 344.5 159.5 c 128,-1,21
 371 186 371 186 377 224 c 0,22,23
 385 264 385 264 365 292 c 128,-1,24
 345 320 345 320 315 324 c 1,25,-1
 337 447 l 1,11,12
162 175 m 1,26,27
 175 136 175 136 226 126 c 1,28,-1
 204 0 l 1,29,30
 163 0 163 0 130.5 14.5 c 128,-1,31
 98 29 98 29 78 52 c 128,-1,32
 58 75 58 75 47 107 c 1,33,-1
 162 175 l 1,26,27
EndSplineSet
EndChar

StartChar: six
Encoding: 54 54 25
Width: 497
Flags: W
LayerCount: 2
Back
Fore
SplineSet
357 425 m 1,0,1
 446 425 446 425 485 363.5 c 128,-1,2
 524 302 524 302 508 209 c 0,3,4
 492 118 492 118 426 59 c 128,-1,5
 360 0 360 0 282 -1 c 1,6,-1
 304 123 l 1,7,8
 333 126 333 126 360 149.5 c 128,-1,9
 387 173 387 173 393 208 c 0,10,11
 394 224 394 224 395.5 236 c 128,-1,12
 397 248 397 248 393 258 c 128,-1,13
 389 268 389 268 386.5 275 c 128,-1,14
 384 282 384 282 377.5 287.5 c 128,-1,15
 371 293 371 293 367 296.5 c 128,-1,16
 363 300 363 300 356 303 c 128,-1,17
 349 306 349 306 346 307 c 128,-1,18
 343 308 343 308 337 309 c 1,19,-1
 357 425 l 1,0,1
450 537 m 1,20,21
 430 573 430 573 394 573 c 2,22,-1
 383 573 l 1,23,-1
 405 698 l 1,24,25
 515 698 515 698 556 600 c 1,26,-1
 450 537 l 1,20,21
351 697 m 1,27,-1
 329 572 l 1,28,29
 306 570 306 570 286 549.5 c 128,-1,30
 266 529 266 529 253 500.5 c 128,-1,31
 240 472 240 472 232 446.5 c 128,-1,32
 224 421 224 421 220 399 c 1,33,34
 258 425 258 425 303 425 c 1,35,-1
 282 307 l 1,36,-1
 281 307 l 1,37,38
 211 290 211 290 197 209 c 0,39,40
 194 195 194 195 197 180 c 128,-1,41
 200 165 200 165 207 153.5 c 128,-1,42
 214 142 214 142 225 133.5 c 128,-1,43
 236 125 236 125 250 124 c 1,44,-1
 228 -1 l 1,45,46
 185 -1 185 -1 154.5 13 c 128,-1,47
 124 27 124 27 107.5 54 c 128,-1,48
 91 81 91 81 82 113.5 c 128,-1,49
 73 146 73 146 73 189 c 128,-1,50
 73 232 73 232 77 271.5 c 128,-1,51
 81 311 81 311 89 358 c 0,52,53
 96 398 96 398 107 436.5 c 128,-1,54
 118 475 118 475 139.5 521 c 128,-1,55
 161 567 161 567 188 602 c 128,-1,56
 215 637 215 637 257.5 664 c 128,-1,57
 300 691 300 691 351 697 c 1,27,-1
EndSplineSet
EndChar

StartChar: seven
Encoding: 55 55 26
Width: 435
Flags: W
LayerCount: 2
Back
Fore
SplineSet
143 698 m 1,0,-1
 532 698 l 1,1,-1
 510 573 l 1,2,3
 503 568 503 568 493.5 556.5 c 128,-1,4
 484 545 484 545 475 532.5 c 128,-1,5
 466 520 466 520 461 510 c 1,6,-1
 326 510 l 1,7,-1
 361 572 l 1,8,-1
 121 572 l 1,9,-1
 143 698 l 1,0,-1
302 450 m 1,10,-1
 435 450 l 1,11,12
 334 218 334 218 273 0 c 1,13,-1
 136 0 l 1,14,15
 197 214 197 214 302 450 c 1,10,-1
EndSplineSet
EndChar

StartChar: eight
Encoding: 56 56 27
Width: 486
Flags: W
LayerCount: 2
Back
Fore
SplineSet
296 125 m 1,0,1
 322 132 322 132 342.5 153 c 128,-1,2
 363 174 363 174 367 201 c 0,3,4
 379 266 379 266 323 283 c 1,5,-1
 346 413 l 1,6,7
 376 422 376 422 393 441 c 128,-1,8
 410 460 410 460 417 497 c 0,9,10
 423 533 423 533 407.5 550.5 c 128,-1,11
 392 568 392 568 373 571 c 1,12,-1
 395 698 l 1,13,14
 422 698 422 698 450.5 683.5 c 128,-1,15
 479 669 479 669 502 644 c 128,-1,16
 525 619 525 619 536.5 580.5 c 128,-1,17
 548 542 548 542 540 499 c 0,18,19
 530 443 530 443 500.5 397.5 c 128,-1,20
 471 352 471 352 457 349 c 1,21,22
 477 333 477 333 490.5 290.5 c 128,-1,23
 504 248 504 248 495 199 c 0,24,25
 488 158 488 158 466.5 122.5 c 128,-1,26
 445 87 445 87 418.5 65.5 c 128,-1,27
 392 44 392 44 363 28.5 c 128,-1,28
 334 13 334 13 311.5 6.5 c 128,-1,29
 289 0 289 0 276 0 c 2,30,-1
 275 0 l 1,31,-1
 296 125 l 1,0,1
234 125 m 1,32,-1
 211 0 l 1,33,-1
 210 0 l 2,34,35
 197 0 197 0 177 6.5 c 128,-1,36
 157 13 157 13 133 28.5 c 128,-1,37
 109 44 109 44 90.5 65.5 c 128,-1,38
 72 87 72 87 63 122.5 c 128,-1,39
 54 158 54 158 61 199 c 0,40,41
 70 248 70 248 98 290.5 c 128,-1,42
 126 333 126 333 153 349 c 1,43,44
 145 351 145 351 135 370.5 c 128,-1,45
 125 390 125 390 119.5 423.5 c 128,-1,46
 114 457 114 457 121 499 c 0,47,48
 131 555 131 555 170.5 602.5 c 128,-1,49
 210 650 210 650 255 674 c 128,-1,50
 300 698 300 698 337 698 c 1,51,-1
 315 571 l 1,52,53
 294 568 294 568 272.5 550.5 c 128,-1,54
 251 533 251 533 245 497 c 0,55,56
 242 478 242 478 242.5 464 c 128,-1,57
 243 450 243 450 249 440 c 128,-1,58
 255 430 255 430 264 423.5 c 128,-1,59
 273 417 273 417 286 413 c 1,60,-1
 263 283 l 1,61,62
 201 266 201 266 189 201 c 0,63,64
 185 174 185 174 197.5 153 c 128,-1,65
 210 132 210 132 234 125 c 1,32,-1
EndSplineSet
EndChar

StartChar: nine
Encoding: 57 57 28
Width: 504
Flags: W
LayerCount: 2
Back
Fore
SplineSet
266 274 m 1,0,1
 175 274 175 274 135 331.5 c 128,-1,2
 95 389 95 389 112 485 c 0,3,4
 128 577 128 577 195.5 638 c 128,-1,5
 263 699 263 699 341 700 c 1,6,-1
 320 576 l 1,7,8
 291 573 291 573 264.5 549.5 c 128,-1,9
 238 526 238 526 232 491 c 0,10,11
 227 474 227 474 229 460 c 128,-1,12
 231 446 231 446 232.5 436 c 128,-1,13
 234 426 234 426 241 418 c 128,-1,14
 248 410 248 410 252 406 c 128,-1,15
 256 402 256 402 264.5 398 c 128,-1,16
 273 394 273 394 276.5 393 c 128,-1,17
 280 392 280 392 286 390 c 1,18,-1
 266 274 l 1,0,1
173 178 m 2,19,20
 175 176 175 176 177 172 c 0,21,22
 186 157 186 157 191.5 150 c 128,-1,23
 197 143 197 143 209.5 136 c 128,-1,24
 222 129 222 129 240 127 c 1,25,-1
 218 1 l 1,26,27
 162 1 162 1 121 33 c 128,-1,28
 80 65 80 65 63 115 c 1,29,-1
 173 178 l 2,19,20
272 2 m 1,30,-1
 294 127 l 1,31,32
 374 143 374 143 402 300 c 1,33,34
 364 274 364 274 320 274 c 1,35,-1
 341 392 l 1,36,-1
 342 392 l 1,37,38
 412 409 412 409 426 490 c 0,39,40
 432 520 432 520 416.5 546 c 128,-1,41
 401 572 401 572 373 575 c 1,42,-1
 395 700 l 1,43,44
 438 700 438 700 469 685.5 c 128,-1,45
 500 671 500 671 517 644.5 c 128,-1,46
 534 618 534 618 543.5 585.5 c 128,-1,47
 553 553 553 553 553.5 510.5 c 128,-1,48
 554 468 554 468 550 428 c 128,-1,49
 546 388 546 388 538 341 c 0,50,51
 531 301 531 301 519.5 260.5 c 128,-1,52
 508 220 508 220 485.5 172.5 c 128,-1,53
 463 125 463 125 435 89 c 128,-1,54
 407 53 407 53 364.5 28 c 128,-1,55
 322 3 322 3 272 2 c 1,30,-1
EndSplineSet
EndChar

StartChar: colon
Encoding: 58 58 29
Width: 250
Flags: W
LayerCount: 2
Back
Fore
SplineSet
62.5 70 m 128,-1,1
 68 102 68 102 93.5 124 c 128,-1,2
 119 146 119 146 150.5 146 c 128,-1,3
 182 146 182 146 200 124 c 128,-1,4
 218 102 218 102 212.5 70.5 c 128,-1,5
 207 39 207 39 181.5 17 c 128,-1,6
 156 -5 156 -5 124.5 -5 c 128,-1,7
 93 -5 93 -5 75 16.5 c 128,-1,0
 57 38 57 38 62.5 70 c 128,-1,1
113 360 m 0,8,9
 116 375 116 375 124.5 389.5 c 128,-1,10
 133 404 133 404 144.5 414 c 128,-1,11
 156 424 156 424 171 430 c 128,-1,12
 186 436 186 436 202 436 c 0,13,14
 233 436 233 436 251 414 c 128,-1,15
 269 392 269 392 263.5 360.5 c 128,-1,16
 258 329 258 329 232.5 307 c 128,-1,17
 207 285 207 285 175 285 c 0,18,19
 155 285 155 285 139.5 295 c 128,-1,20
 124 305 124 305 117 322 c 128,-1,21
 110 339 110 339 113 360 c 0,8,9
EndSplineSet
EndChar

StartChar: semicolon
Encoding: 59 59 30
Width: 291
Flags: W
LayerCount: 2
Back
Fore
SplineSet
154 360 m 0,0,1
 157 375 157 375 165.5 389.5 c 128,-1,2
 174 404 174 404 185.5 414 c 128,-1,3
 197 424 197 424 212 430 c 128,-1,4
 227 436 227 436 243 436 c 0,5,6
 274 436 274 436 292 414 c 128,-1,7
 310 392 310 392 304.5 360.5 c 128,-1,8
 299 329 299 329 273.5 307 c 128,-1,9
 248 285 248 285 216 285 c 0,10,11
 196 285 196 285 180.5 295 c 128,-1,12
 165 305 165 305 158 322 c 128,-1,13
 151 339 151 339 154 360 c 0,0,1
173 -23 m 1,14,-1
 46 -23 l 1,15,-1
 110 129 l 1,16,-1
 237 129 l 1,17,-1
 173 -23 l 1,14,-1
EndSplineSet
EndChar

StartChar: less
Encoding: 60 60 31
Width: 414
Flags: W
LayerCount: 2
Back
Fore
SplineSet
472 500 m 1,0,-1
 449 370 l 1,1,-1
 259 292 l 1,2,-1
 420 206 l 1,3,-1
 398 79 l 1,4,-1
 75 258 l 1,5,-1
 87 322 l 1,6,-1
 472 500 l 1,0,-1
EndSplineSet
EndChar

StartChar: equal
Encoding: 61 61 32
Width: 418
Flags: W
LayerCount: 2
Back
Fore
SplineSet
413 258 m 1,0,-1
 391 131 l 1,1,-1
 73 131 l 1,2,-1
 95 258 l 1,3,-1
 413 258 l 1,0,-1
448 452 m 1,4,-1
 425 325 l 1,5,-1
 107 325 l 1,6,-1
 130 452 l 1,7,-1
 448 452 l 1,4,-1
EndSplineSet
EndChar

StartChar: greater
Encoding: 62 62 33
Width: 414
Flags: W
LayerCount: 2
Back
Fore
SplineSet
118 500 m 1,0,-1
 441 322 l 1,1,-1
 429 258 l 1,2,-1
 44 79 l 1,3,-1
 66 206 l 1,4,-1
 257 292 l 1,5,-1
 95 370 l 1,6,-1
 118 500 l 1,0,-1
EndSplineSet
EndChar

StartChar: question
Encoding: 63 63 34
Width: 460
Flags: W
LayerCount: 2
Back
Fore
SplineSet
131 53.5 m 128,-1,1
 137 85 137 85 162.5 107 c 128,-1,2
 188 129 188 129 219.5 129 c 128,-1,3
 251 129 251 129 269 107 c 128,-1,4
 287 85 287 85 281.5 53.5 c 128,-1,5
 276 22 276 22 250.5 0 c 128,-1,6
 225 -22 225 -22 193 -22 c 128,-1,7
 161 -22 161 -22 143 0 c 128,-1,0
 125 22 125 22 131 53.5 c 128,-1,1
205 526 m 1,8,-1
 138 611 l 1,9,10
 155 629 155 629 171 642 c 128,-1,11
 187 655 187 655 212.5 670.5 c 128,-1,12
 238 686 238 686 271 694.5 c 128,-1,13
 304 703 304 703 342 703 c 0,14,15
 438 703 438 703 484.5 646 c 128,-1,16
 531 589 531 589 517 491 c 0,17,18
 512 459 512 459 502 430.5 c 128,-1,19
 492 402 492 402 479 382 c 128,-1,20
 466 362 466 362 450.5 345.5 c 128,-1,21
 435 329 435 329 419.5 318 c 128,-1,22
 404 307 404 307 387.5 299 c 128,-1,23
 371 291 371 291 358.5 287 c 128,-1,24
 346 283 346 283 334.5 280 c 128,-1,25
 323 277 323 277 318 276.5 c 128,-1,26
 313 276 313 276 312 276 c 2,27,-1
 292 166 l 1,28,-1
 163 166 l 1,29,-1
 202 386 l 1,30,31
 241 387 241 387 265.5 389.5 c 128,-1,32
 290 392 290 392 313.5 398 c 128,-1,33
 337 404 337 404 350.5 416 c 128,-1,34
 364 428 364 428 374 446.5 c 128,-1,35
 384 465 384 465 389 493 c 0,36,37
 396 531 396 531 372.5 553 c 128,-1,38
 349 575 349 575 311 575 c 0,39,40
 251 575 251 575 205 526 c 1,8,-1
EndSplineSet
EndChar

StartChar: at
Encoding: 64 64 35
Width: 857
Flags: W
LayerCount: 2
Back
Fore
SplineSet
716 142 m 1,0,-1
 747 64 l 1,1,2
 628 -22 628 -22 418 -22 c 0,3,4
 242 -22 242 -22 152.5 82.5 c 128,-1,5
 63 187 63 187 92 354 c 0,6,7
 112 466 112 466 186.5 558.5 c 128,-1,8
 261 651 261 651 373 704 c 128,-1,9
 485 757 485 757 610 757 c 0,10,11
 675 757 675 757 734 734.5 c 128,-1,12
 793 712 793 712 835.5 673 c 128,-1,13
 878 634 878 634 898.5 577.5 c 128,-1,14
 919 521 919 521 908 457 c 0,15,16
 894 381 894 381 860.5 322.5 c 128,-1,17
 827 264 827 264 781.5 229.5 c 128,-1,18
 736 195 736 195 686 178 c 128,-1,19
 636 161 636 161 583 161 c 0,20,21
 528 164 528 164 517 206 c 1,22,23
 473 161 473 161 395 161 c 0,24,25
 332 161 332 161 297.5 204.5 c 128,-1,26
 263 248 263 248 275 319 c 0,27,28
 286 380 286 380 315.5 429 c 128,-1,29
 345 478 345 478 383 506.5 c 128,-1,30
 421 535 421 535 459.5 549.5 c 128,-1,31
 498 564 498 564 531 564 c 0,32,33
 561 564 561 564 582 555.5 c 128,-1,34
 603 547 603 547 609 541 c 128,-1,35
 615 535 615 535 625 522 c 1,36,-1
 638 549 l 1,37,-1
 733 549 l 1,38,-1
 633 330 l 2,39,40
 622 304 622 304 619 288 c 0,41,42
 614 262 614 262 635 262 c 0,43,44
 690 262 690 262 736 312.5 c 128,-1,45
 782 363 782 363 799 457 c 0,46,47
 806 499 806 499 789 537 c 128,-1,48
 772 575 772 575 740.5 599.5 c 128,-1,49
 709 624 709 624 670 638.5 c 128,-1,50
 631 653 631 653 593 653 c 0,51,52
 518 653 518 653 448.5 628 c 128,-1,53
 379 603 379 603 327.5 561.5 c 128,-1,54
 276 520 276 520 241 465.5 c 128,-1,55
 206 411 206 411 196 352 c 0,56,57
 174 229 174 229 243 152 c 128,-1,58
 312 75 312 75 437 75 c 0,59,60
 601 75 601 75 716 142 c 1,0,-1
EndSplineSet
EndChar

StartChar: A
Encoding: 65 65 36
Width: 516
Flags: W
LayerCount: 2
Back
Fore
SplineSet
258 582 m 1,0,-1
 273 582 l 1,1,-1
 283 302 l 1,2,-1
 164 0 l 1,3,-1
 26 0 l 1,4,-1
 258 582 l 1,0,-1
323 699 m 1,5,-1
 462 699 l 1,6,-1
 490 0 l 1,7,-1
 353 0 l 1,8,-1
 348 85 l 1,9,-1
 254 85 l 1,10,-1
 308 223 l 1,11,-1
 344 223 l 1,12,-1
 323 699 l 1,5,-1
EndSplineSet
EndChar

StartChar: B
Encoding: 66 66 37
Width: 484
Flags: W
LayerCount: 2
Back
Fore
SplineSet
243 122 m 1,0,1
 273 122 273 122 296.5 131 c 128,-1,2
 320 140 320 140 332.5 154 c 128,-1,3
 345 168 345 168 351.5 180.5 c 128,-1,4
 358 193 358 193 360 205 c 0,5,6
 360 212 360 212 361 222 c 128,-1,7
 362 232 362 232 356.5 244 c 128,-1,8
 351 256 351 256 343 266 c 128,-1,9
 335 276 335 276 316 282.5 c 128,-1,10
 297 289 297 289 272 289 c 1,11,-1
 293 411 l 1,12,13
 338 411 338 411 370.5 435 c 128,-1,14
 403 459 403 459 410 497 c 0,15,16
 413 515 413 515 408 530 c 128,-1,17
 403 545 403 545 391.5 555 c 128,-1,18
 380 565 380 565 362.5 571 c 128,-1,19
 345 577 345 577 323 577 c 1,20,-1
 344 700 l 1,21,22
 353 701 353 701 369 701 c 0,23,24
 405 701 405 701 435 691.5 c 128,-1,25
 465 682 465 682 484 666 c 128,-1,26
 503 650 503 650 517.5 630 c 128,-1,27
 532 610 532 610 537.5 589 c 128,-1,28
 543 568 543 568 546 548.5 c 128,-1,29
 549 529 549 529 545 514 c 1,30,-1
 544 513 l 1,31,32
 524 402 524 402 447 352 c 1,33,34
 477 325 477 325 490 291.5 c 128,-1,35
 503 258 503 258 493 201 c 0,36,37
 493 197 493 197 493 197 c 1,38,39
 477 114 477 114 406.5 56 c 128,-1,40
 336 -2 336 -2 249 -2 c 0,41,42
 239 -2 239 -2 221 0 c 1,43,-1
 243 122 l 1,0,1
149 700 m 1,44,-1
 290 700 l 1,45,-1
 167 0 l 1,46,-1
 26 0 l 1,47,-1
 149 700 l 1,44,-1
EndSplineSet
EndChar

StartChar: C
Encoding: 67 67 38
Width: 494
Flags: W
LayerCount: 2
Back
Fore
SplineSet
382 564 m 1,0,-1
 407 705 l 1,1,2
 477 705 477 705 524.5 646.5 c 128,-1,3
 572 588 572 588 559 516 c 1,4,-1
 415 480 l 1,5,-1
 417 495 l 2,6,7
 422 520 422 520 419 532 c 0,8,9
 416 542 416 542 407 550 c 128,-1,10
 398 558 398 558 390 561 c 2,11,-1
 382 564 l 1,0,-1
307 136 m 1,12,13
 340 143 340 143 354 166 c 0,14,15
 361 178 361 178 366 203 c 2,16,-1
 368 215 l 1,17,-1
 500 182 l 1,18,19
 486 105 486 105 419.5 50 c 128,-1,20
 353 -5 353 -5 282 -5 c 1,21,-1
 307 136 l 1,12,13
353 705 m 1,22,-1
 328 564 l 1,23,24
 308 564 308 564 292 552.5 c 128,-1,25
 276 541 276 541 270.5 532 c 128,-1,26
 265 523 265 523 264 518 c 2,27,-1
 205 181 l 2,28,29
 204 178 204 178 205.5 171.5 c 128,-1,30
 207 165 207 165 211 156.5 c 128,-1,31
 215 148 215 148 226 142 c 128,-1,32
 237 136 237 136 253 136 c 1,33,-1
 228 -5 l 1,34,35
 187 -5 187 -5 155 8.5 c 128,-1,36
 123 22 123 22 105.5 43 c 128,-1,37
 88 64 88 64 76 89.5 c 128,-1,38
 64 115 64 115 63.5 138.5 c 128,-1,39
 63 162 63 162 64 181 c 2,40,-1
 123 518 l 2,41,42
 128 543 128 543 144.5 573 c 128,-1,43
 161 603 161 603 188 633.5 c 128,-1,44
 215 664 215 664 259 684.5 c 128,-1,45
 303 705 303 705 353 705 c 1,22,-1
EndSplineSet
EndChar

StartChar: D
Encoding: 68 68 39
Width: 452
Flags: W
LayerCount: 2
Back
Fore
SplineSet
227 0 m 1,0,-1
 252 141 l 1,1,2
 258 141 258 141 269.5 144.5 c 128,-1,3
 281 148 281 148 297 161.5 c 128,-1,4
 313 175 313 175 318 197 c 2,5,-1
 372 503 l 2,6,7
 372 507 372 507 371 514 c 128,-1,8
 370 521 370 521 367 532 c 128,-1,9
 364 543 364 543 353 551 c 128,-1,10
 342 559 342 559 326 559 c 1,11,-1
 350 700 l 1,12,13
 385 700 385 700 413 690 c 128,-1,14
 441 680 441 680 458.5 663 c 128,-1,15
 476 646 476 646 489.5 625 c 128,-1,16
 503 604 503 604 507.5 582 c 128,-1,17
 512 560 512 560 514.5 539.5 c 128,-1,18
 517 519 517 519 513 503 c 2,19,-1
 459 197 l 2,20,21
 451 155 451 155 430 120.5 c 128,-1,22
 409 86 409 86 383 64 c 128,-1,23
 357 42 357 42 327 27 c 128,-1,24
 297 12 297 12 272 6 c 128,-1,25
 247 0 247 0 227 0 c 1,0,-1
155 700 m 1,26,-1
 296 700 l 1,27,-1
 173 0 l 1,28,-1
 32 0 l 1,29,-1
 155 700 l 1,26,-1
EndSplineSet
EndChar

StartChar: E
Encoding: 69 69 40
Width: 422
Flags: W
LayerCount: 2
Back
Fore
SplineSet
421 141 m 1,0,-1
 396 0 l 1,1,-1
 32 0 l 1,2,-1
 155 700 l 1,3,-1
 519 700 l 1,4,-1
 495 560 l 1,5,-1
 272 560 l 1,6,-1
 247 418 l 1,7,-1
 376 418 l 1,8,-1
 351 277 l 1,9,-1
 222 277 l 1,10,-1
 198 141 l 1,11,-1
 421 141 l 1,0,-1
EndSplineSet
EndChar

StartChar: F
Encoding: 70 70 41
Width: 422
Flags: W
LayerCount: 2
Back
Fore
SplineSet
376 418 m 1,0,-1
 351 277 l 1,1,-1
 222 277 l 1,2,-1
 173 1 l 1,3,-1
 32 1 l 1,4,-1
 155 700 l 1,5,-1
 519 700 l 1,6,-1
 495 560 l 1,7,-1
 272 560 l 1,8,-1
 247 418 l 1,9,-1
 376 418 l 1,0,-1
EndSplineSet
EndChar

StartChar: G
Encoding: 71 71 42
Width: 493
Flags: W
LayerCount: 2
Back
Fore
SplineSet
375 564 m 1,0,-1
 400 705 l 1,1,2
 470 705 470 705 517.5 646.5 c 128,-1,3
 565 588 565 588 552 516 c 1,4,-1
 405 465 l 1,5,-1
 410 495 l 2,6,7
 415 520 415 520 412 532 c 0,8,9
 411 537 411 537 408 541 c 128,-1,10
 405 545 405 545 402 548.5 c 128,-1,11
 399 552 399 552 395 554.5 c 128,-1,12
 391 557 391 557 387.5 558.5 c 128,-1,13
 384 560 384 560 381.5 561.5 c 128,-1,14
 379 563 379 563 377 563 c 2,15,-1
 375 564 l 1,0,-1
523 353 m 1,16,-1
 492 176 l 2,17,18
 481 116 481 116 409 56 c 128,-1,19
 337 -4 337 -4 275 -5 c 1,20,-1
 300 136 l 1,21,22
 309 136 309 136 329 151.5 c 128,-1,23
 349 167 349 167 353 190 c 2,24,-1
 358 223 l 1,25,-1
 315 223 l 1,26,-1
 338 353 l 1,27,-1
 523 353 l 1,16,-1
221 -5 m 1,28,29
 202 -5 202 -5 179 1.5 c 128,-1,30
 156 8 156 8 131.5 23 c 128,-1,31
 107 38 107 38 88.5 60 c 128,-1,32
 70 82 70 82 61.5 116.5 c 128,-1,33
 53 151 53 151 60 192 c 2,34,-1
 118 524 l 2,35,36
 126 551 126 551 144 580 c 128,-1,37
 162 609 162 609 189.5 638.5 c 128,-1,38
 217 668 217 668 258.5 686.5 c 128,-1,39
 300 705 300 705 346 705 c 1,40,-1
 321 564 l 1,41,42
 301 564 301 564 285 550 c 128,-1,43
 269 536 269 536 263.5 525 c 128,-1,44
 258 514 258 514 257 508 c 2,45,-1
 201 192 l 2,46,47
 198 176 198 176 204 164 c 128,-1,48
 210 152 210 152 219.5 146.5 c 128,-1,49
 229 141 229 141 236 138.5 c 128,-1,50
 243 136 243 136 246 136 c 2,51,-1
 221 -5 l 1,28,29
EndSplineSet
EndChar

StartChar: H
Encoding: 72 72 43
Width: 458
Flags: W
LayerCount: 2
Back
Fore
SplineSet
276 421 m 1,0,-1
 252 283 l 1,1,-1
 223 283 l 1,2,-1
 173 0 l 1,3,-1
 32 0 l 1,4,-1
 155 700 l 1,5,-1
 296 700 l 1,6,-1
 247 421 l 1,7,-1
 276 421 l 1,0,-1
408 700 m 1,8,-1
 549 700 l 1,9,-1
 426 0 l 1,10,-1
 285 0 l 1,11,-1
 335 283 l 1,12,-1
 306 283 l 1,13,-1
 330 421 l 1,14,-1
 359 421 l 1,15,-1
 408 700 l 1,8,-1
EndSplineSet
EndChar

StartChar: I
Encoding: 73 73 44
Width: 209
Flags: W
LayerCount: 2
Back
Fore
SplineSet
157 700 m 1,0,-1
 298 700 l 1,1,-1
 175 0 l 1,2,-1
 34 0 l 1,3,-1
 157 700 l 1,0,-1
EndSplineSet
EndChar

StartChar: J
Encoding: 74 74 45
Width: 495
Flags: W
LayerCount: 2
Back
Fore
SplineSet
212 -5 m 1,0,1
 188 -5 188 -5 159.5 7 c 128,-1,2
 131 19 131 19 104.5 41.5 c 128,-1,3
 78 64 78 64 64.5 104 c 128,-1,4
 51 144 51 144 60 193 c 2,5,-1
 69 242 l 1,6,-1
 210 242 l 1,7,-1
 201 193 l 2,8,9
 199 177 199 177 203 165 c 128,-1,10
 207 153 207 153 214.5 147.5 c 128,-1,11
 222 142 222 142 228 139.5 c 128,-1,12
 234 137 234 137 237 137 c 2,13,-1
 212 -5 l 1,0,1
266 -5 m 1,14,-1
 291 137 l 1,15,16
 297 137 297 137 309 141 c 128,-1,17
 321 145 321 145 337 158.5 c 128,-1,18
 353 172 353 172 357 193 c 2,19,-1
 446 700 l 1,20,-1
 586 700 l 1,21,-1
 497 193 l 2,22,23
 490 152 490 152 469 117.5 c 128,-1,24
 448 83 448 83 422 61 c 128,-1,25
 396 39 396 39 366 23.5 c 128,-1,26
 336 8 336 8 310.5 1.5 c 128,-1,27
 285 -5 285 -5 266 -5 c 1,14,-1
EndSplineSet
EndChar

StartChar: K
Encoding: 75 75 46
Width: 475
Flags: W
LayerCount: 2
Back
Fore
SplineSet
437 700 m 1,0,-1
 576 700 l 1,1,-1
 407 341 l 1,2,-1
 457 0 l 1,3,-1
 319 0 l 1,4,-1
 267 341 l 1,5,-1
 437 700 l 1,0,-1
149 700 m 1,6,-1
 290 700 l 1,7,-1
 167 0 l 1,8,-1
 26 0 l 1,9,-1
 149 700 l 1,6,-1
EndSplineSet
EndChar

StartChar: L
Encoding: 76 76 47
Width: 428
Flags: W
LayerCount: 2
Back
Fore
SplineSet
427 139 m 1,0,-1
 402 0 l 1,1,-1
 26 0 l 1,2,-1
 149 700 l 1,3,-1
 290 700 l 1,4,-1
 192 139 l 1,5,-1
 427 139 l 1,0,-1
EndSplineSet
EndChar

StartChar: M
Encoding: 77 77 48
Width: 676
Flags: W
LayerCount: 2
Back
Fore
SplineSet
32 0 m 1,0,-1
 110 444 l 1,1,-1
 119 444 l 1,2,-1
 195 127 l 1,3,-1
 173 0 l 1,4,-1
 32 0 l 1,0,-1
155 700 m 1,5,-1
 265 700 l 1,6,-1
 375 237 l 1,7,-1
 523 476 l 1,8,-1
 533 476 l 1,9,-1
 476 151 l 1,10,-1
 382 0 l 1,11,-1
 285 0 l 1,12,-1
 139 608 l 1,13,-1
 155 700 l 1,5,-1
626 700 m 1,14,-1
 767 700 l 1,15,-1
 644 0 l 1,16,-1
 503 0 l 1,17,-1
 626 700 l 1,14,-1
EndSplineSet
EndChar

StartChar: N
Encoding: 78 78 49
Width: 509
Flags: W
LayerCount: 2
Back
Fore
SplineSet
32 0 m 1,0,-1
 119 492 l 1,1,-1
 127 492 l 1,2,-1
 222 278 l 1,3,-1
 173 0 l 1,4,-1
 32 0 l 1,0,-1
600 700 m 1,5,-1
 527 284 l 1,6,-1
 519 284 l 1,7,-1
 424 498 l 1,8,-1
 459 700 l 1,9,-1
 600 700 l 1,5,-1
155 700 m 1,10,-1
 270 700 l 1,11,-1
 507 168 l 1,12,-1
 477 0 l 1,13,-1
 410 0 l 1,14,-1
 139 608 l 1,15,-1
 155 700 l 1,10,-1
EndSplineSet
EndChar

StartChar: O
Encoding: 79 79 50
Width: 508
Flags: W
LayerCount: 2
Back
Fore
SplineSet
225 -5 m 1,0,1
 206 -5 206 -5 183 1.5 c 128,-1,2
 160 8 160 8 135.5 24 c 128,-1,3
 111 40 111 40 92.5 62 c 128,-1,4
 74 84 74 84 65.5 119 c 128,-1,5
 57 154 57 154 64 195 c 2,6,-1
 122 524 l 2,7,8
 127 548 127 548 145 578 c 128,-1,9
 163 608 163 608 191 637 c 128,-1,10
 219 666 219 666 262 685.5 c 128,-1,11
 305 705 305 705 351 705 c 1,12,-1
 326 564 l 1,13,14
 306 564 306 564 289.5 550 c 128,-1,15
 273 536 273 536 267.5 524.5 c 128,-1,16
 262 513 262 513 261 508 c 2,17,-1
 205 195 l 2,18,19
 202 174 202 174 212.5 160 c 128,-1,20
 223 146 223 146 234 141.5 c 128,-1,21
 245 137 245 137 250 137 c 1,22,-1
 225 -5 l 1,0,1
280 -5 m 1,23,-1
 305 137 l 1,24,25
 310 137 310 137 322.5 141.5 c 128,-1,26
 335 146 335 146 351 160 c 128,-1,27
 367 174 367 174 371 195 c 2,28,-1
 427 508 l 2,29,30
 428 513 428 513 426 524.5 c 128,-1,31
 424 536 424 536 412.5 550 c 128,-1,32
 401 564 401 564 380 564 c 1,33,-1
 405 705 l 1,34,35
 443 705 443 705 473.5 692 c 128,-1,36
 504 679 504 679 523 658.5 c 128,-1,37
 542 638 542 638 554 613.5 c 128,-1,38
 566 589 566 589 570 565.5 c 128,-1,39
 574 542 574 542 570 524 c 2,40,-1
 512 195 l 2,41,42
 503 144 503 144 474 103.5 c 128,-1,43
 445 63 445 63 408.5 40.5 c 128,-1,44
 372 18 372 18 338.5 6.5 c 128,-1,45
 305 -5 305 -5 280 -5 c 1,23,-1
EndSplineSet
EndChar

StartChar: P
Encoding: 80 80 51
Width: 474
Flags: W
LayerCount: 2
Back
Fore
SplineSet
302 457 m 1,0,-1
 335 457 l 2,1,2
 340 457 340 457 346 458 c 128,-1,3
 352 459 352 459 363 463.5 c 128,-1,4
 374 468 374 468 383 479.5 c 128,-1,5
 392 491 392 491 395 508 c 0,6,7
 398 526 398 526 393.5 537.5 c 128,-1,8
 389 549 389 549 380 553.5 c 128,-1,9
 371 558 371 558 365 559.5 c 128,-1,10
 359 561 359 561 353 561 c 2,11,-1
 320 561 l 1,12,-1
 344 700 l 1,13,14
 411 700 411 700 454 686.5 c 128,-1,15
 497 673 497 673 516.5 648.5 c 128,-1,16
 536 624 536 624 541.5 589.5 c 128,-1,17
 547 555 547 555 538 512 c 0,18,19
 520 406 520 406 458.5 362 c 128,-1,20
 397 318 397 318 277 318 c 1,21,-1
 302 457 l 1,0,-1
149 700 m 1,22,-1
 290 700 l 1,23,-1
 167 0 l 1,24,-1
 26 0 l 1,25,-1
 149 700 l 1,22,-1
EndSplineSet
EndChar

StartChar: Q
Encoding: 81 81 52
Width: 500
Flags: W
LayerCount: 2
Back
Fore
SplineSet
221 -5 m 1,0,1
 202 -5 202 -5 179 1.5 c 128,-1,2
 156 8 156 8 131.5 24 c 128,-1,3
 107 40 107 40 88.5 62 c 128,-1,4
 70 84 70 84 61.5 119 c 128,-1,5
 53 154 53 154 60 195 c 2,6,-1
 118 524 l 2,7,8
 123 548 123 548 141 578 c 128,-1,9
 159 608 159 608 187 637 c 128,-1,10
 215 666 215 666 258 685.5 c 128,-1,11
 301 705 301 705 347 705 c 1,12,-1
 322 564 l 1,13,14
 302 564 302 564 285.5 550 c 128,-1,15
 269 536 269 536 263.5 524.5 c 128,-1,16
 258 513 258 513 257 508 c 2,17,-1
 201 195 l 2,18,19
 198 174 198 174 208.5 160 c 128,-1,20
 219 146 219 146 230 141.5 c 128,-1,21
 241 137 241 137 246 137 c 1,22,-1
 221 -5 l 1,0,1
413 47 m 1,23,-1
 454 -32 l 1,24,-1
 329 -107 l 1,25,-1
 276 -5 l 1,26,-1
 301 137 l 1,27,28
 306 137 306 137 318.5 141.5 c 128,-1,29
 331 146 331 146 347 160 c 128,-1,30
 363 174 363 174 367 195 c 2,31,-1
 423 508 l 2,32,33
 424 513 424 513 422 524.5 c 128,-1,34
 420 536 420 536 408.5 550 c 128,-1,35
 397 564 397 564 376 564 c 1,36,-1
 401 705 l 1,37,38
 439 705 439 705 469.5 692 c 128,-1,39
 500 679 500 679 519 658.5 c 128,-1,40
 538 638 538 638 550 613.5 c 128,-1,41
 562 589 562 589 566 565.5 c 128,-1,42
 570 542 570 542 566 524 c 2,43,-1
 508 195 l 2,44,45
 492 104 492 104 413 47 c 1,23,-1
EndSplineSet
EndChar

StartChar: R
Encoding: 82 82 53
Width: 495
Flags: W
LayerCount: 2
Back
Fore
SplineSet
299 411 m 1,0,-1
 312 411 l 2,1,2
 341 411 341 411 363 422 c 128,-1,3
 385 433 385 433 396.5 450 c 128,-1,4
 408 467 408 467 412 488 c 0,5,6
 418 523 418 523 397.5 545 c 128,-1,7
 377 567 377 567 340 567 c 2,8,-1
 327 567 l 1,9,-1
 350 700 l 1,10,11
 460 700 460 700 508.5 644.5 c 128,-1,12
 557 589 557 589 540 496 c 0,13,14
 523 394 523 394 448 352 c 1,15,16
 471 332 471 332 482.5 293.5 c 128,-1,17
 494 255 494 255 490 217 c 2,18,-1
 469 0 l 1,19,-1
 343 0 l 1,20,-1
 359 178 l 2,21,22
 365 238 365 238 347.5 261.5 c 128,-1,23
 330 285 330 285 277 286 c 1,24,-1
 299 411 l 1,0,-1
155 700 m 1,25,-1
 296 700 l 1,26,-1
 173 0 l 1,27,-1
 32 0 l 1,28,-1
 155 700 l 1,25,-1
EndSplineSet
EndChar

StartChar: S
Encoding: 83 83 54
Width: 497
Flags: W
LayerCount: 2
Back
Fore
SplineSet
339 700 m 1,0,-1
 316 568 l 1,1,2
 299 563 299 563 284 547 c 128,-1,3
 269 531 269 531 265 513 c 0,4,5
 262 494 262 494 270.5 479 c 128,-1,6
 279 464 279 464 296.5 453.5 c 128,-1,7
 314 443 314 443 333 434.5 c 128,-1,8
 352 426 352 426 376 415 c 128,-1,9
 400 404 400 404 415 394 c 0,10,11
 426 387 426 387 434 381.5 c 128,-1,12
 442 376 442 376 451.5 368 c 128,-1,13
 461 360 461 360 468.5 352.5 c 128,-1,14
 476 345 476 345 483.5 335.5 c 128,-1,15
 491 326 491 326 496.5 316.5 c 128,-1,16
 502 307 502 307 506.5 294.5 c 128,-1,17
 511 282 511 282 512.5 269 c 128,-1,18
 514 256 514 256 514 241 c 128,-1,19
 514 226 514 226 511 209 c 0,20,21
 496 124 496 124 424 60.5 c 128,-1,22
 352 -3 352 -3 270 -3 c 1,23,-1
 293 127 l 1,24,25
 308 129 308 129 322 136 c 128,-1,26
 336 143 336 143 350 160.5 c 128,-1,27
 364 178 364 178 369 203 c 0,28,29
 373 224 373 224 364.5 241 c 128,-1,30
 356 258 356 258 337.5 269.5 c 128,-1,31
 319 281 319 281 301 289.5 c 128,-1,32
 283 298 283 298 258 307 c 128,-1,33
 233 316 233 316 221 323 c 0,34,35
 166 352 166 352 142 393.5 c 128,-1,36
 118 435 118 435 131 508 c 0,37,38
 138 548 138 548 157 581 c 128,-1,39
 176 614 176 614 200 635.5 c 128,-1,40
 224 657 224 657 251 672 c 128,-1,41
 278 687 278 687 300.5 693.5 c 128,-1,42
 323 700 323 700 339 700 c 1,0,-1
394 700 m 1,43,44
 432 700 432 700 462.5 682.5 c 128,-1,45
 493 665 493 665 509.5 640 c 128,-1,46
 526 615 526 615 535 591.5 c 128,-1,47
 544 568 544 568 544 553 c 1,48,-1
 406 510 l 1,49,50
 407 520 407 520 405 528 c 128,-1,51
 403 536 403 536 400 542 c 128,-1,52
 397 548 397 548 393.5 552.5 c 128,-1,53
 390 557 390 557 386 560 c 128,-1,54
 382 563 382 563 378.5 565 c 128,-1,55
 375 567 375 567 373 567 c 2,56,-1
 371 568 l 1,57,-1
 394 700 l 1,43,44
215 -3 m 1,58,59
 177 -3 177 -3 144.5 14.5 c 128,-1,60
 112 32 112 32 93.5 57 c 128,-1,61
 75 82 75 82 66 109.5 c 128,-1,62
 57 137 57 137 61 158 c 1,63,-1
 196 203 l 1,64,65
 194 187 194 187 197.5 173.5 c 128,-1,66
 201 160 201 160 207.5 152 c 128,-1,67
 214 144 214 144 221 138 c 128,-1,68
 228 132 228 132 233 129 c 2,69,-1
 238 127 l 1,70,-1
 215 -3 l 1,58,59
EndSplineSet
EndChar

StartChar: T
Encoding: 84 84 55
Width: 485
Flags: W
LayerCount: 2
Back
Fore
SplineSet
582 700 m 1,0,-1
 558 562 l 1,1,-1
 412 562 l 1,2,-1
 313 0 l 1,3,-1
 172 0 l 1,4,-1
 271 562 l 1,5,-1
 125 562 l 1,6,-1
 149 700 l 1,7,-1
 582 700 l 1,0,-1
EndSplineSet
EndChar

StartChar: U
Encoding: 85 85 56
Width: 512
Flags: W
LayerCount: 2
Back
Fore
SplineSet
228 -5 m 1,0,1
 209 -5 209 -5 186 1.5 c 128,-1,2
 163 8 163 8 138 23.5 c 128,-1,3
 113 39 113 39 94.5 61 c 128,-1,4
 76 83 76 83 67.5 117.5 c 128,-1,5
 59 152 59 152 66 193 c 2,6,-1
 155 700 l 1,7,-1
 296 700 l 1,8,-1
 207 193 l 2,9,10
 204 172 204 172 215 158.5 c 128,-1,11
 226 145 226 145 237 141 c 128,-1,12
 248 137 248 137 253 137 c 1,13,-1
 228 -5 l 1,0,1
514 193 m 1,14,15
 505 142 505 142 476 101.5 c 128,-1,16
 447 61 447 61 410.5 39 c 128,-1,17
 374 17 374 17 340.5 6 c 128,-1,18
 307 -5 307 -5 282 -5 c 1,19,-1
 307 137 l 1,20,21
 313 137 313 137 325 141 c 128,-1,22
 337 145 337 145 353 158.5 c 128,-1,23
 369 172 369 172 373 193 c 2,24,-1
 462 700 l 1,25,-1
 602 700 l 1,26,-1
 513 193 l 1,27,-1
 514 193 l 1,14,15
EndSplineSet
EndChar

StartChar: V
Encoding: 86 86 57
Width: 508
Flags: W
LayerCount: 2
Back
Fore
SplineSet
149 700 m 1,0,-1
 293 700 l 1,1,-1
 357 158 l 1,2,-1
 276 0 l 1,3,-1
 229 0 l 1,4,-1
 149 700 l 1,0,-1
605 700 m 1,5,6
 605 700 605 700 410 290 c 1,7,-1
 400 290 l 1,8,-1
 374 514 l 1,9,-1
 461 700 l 1,10,-1
 605 700 l 1,5,6
EndSplineSet
EndChar

StartChar: W
Encoding: 87 87 58
Width: 725
Flags: W
LayerCount: 2
Back
Fore
SplineSet
149 700 m 1,0,-1
 293 700 l 1,1,-1
 356 158 l 1,2,-1
 276 0 l 1,3,-1
 229 0 l 1,4,-1
 149 700 l 1,0,-1
362 700 m 1,5,-1
 506 700 l 1,6,-1
 569 158 l 1,7,-1
 489 0 l 1,8,-1
 442 0 l 1,9,-1
 362 700 l 1,5,-1
822 700 m 1,10,-1
 627 290 l 1,11,-1
 617 290 l 1,12,-1
 591 514 l 1,13,-1
 678 700 l 1,14,-1
 822 700 l 1,10,-1
EndSplineSet
EndChar

StartChar: X
Encoding: 88 88 59
Width: 464
Flags: W
LayerCount: 2
Back
Fore
SplineSet
549 700 m 1,0,-1
 366 361 l 1,1,-1
 438 0 l 1,2,-1
 293 0 l 1,3,-1
 261 167 l 1,4,-1
 171 0 l 1,5,-1
 26 0 l 1,6,-1
 226 361 l 1,7,-1
 161 700 l 1,8,-1
 298 700 l 1,9,-1
 329 548 l 1,10,-1
 412 700 l 1,11,-1
 549 700 l 1,0,-1
EndSplineSet
EndChar

StartChar: Y
Encoding: 89 89 60
Width: 479
Flags: W
LayerCount: 2
Back
Fore
SplineSet
149 700 m 1,0,-1
 296 700 l 1,1,-1
 348 253 l 1,2,-1
 303 0 l 1,3,-1
 157 0 l 1,4,-1
 201 252 l 1,5,-1
 149 700 l 1,0,-1
369 565 m 1,6,-1
 431 700 l 1,7,-1
 576 700 l 1,8,-1
 400 312 l 1,9,-1
 369 565 l 1,6,-1
EndSplineSet
EndChar

StartChar: Z
Encoding: 90 90 61
Width: 418
Flags: W
LayerCount: 2
Back
Fore
SplineSet
207 144 m 1,0,-1
 417 144 l 1,1,-1
 392 0 l 1,2,-1
 26 0 l 1,3,-1
 51 141 l 1,4,-1
 335 560 l 1,5,-1
 125 560 l 1,6,-1
 149 700 l 1,7,-1
 515 700 l 1,8,-1
 491 563 l 1,9,-1
 207 144 l 1,0,-1
EndSplineSet
EndChar

StartChar: bracketleft
Encoding: 91 91 62
Width: 258
Flags: W
LayerCount: 2
Back
Fore
SplineSet
374 739 m 1,0,-1
 355 629 l 1,1,-1
 294 629 l 1,2,-1
 193 74 l 1,3,-1
 257 74 l 1,4,-1
 238 -36 l 1,5,-1
 44 -36 l 1,6,-1
 180 739 l 1,7,-1
 374 739 l 1,0,-1
EndSplineSet
EndChar

StartChar: backslash
Encoding: 92 92 63
Width: 402
Flags: W
LayerCount: 2
Back
Fore
SplineSet
347 -23 m 1,0,-1
 220 -23 l 1,1,-1
 176 716 l 1,2,-1
 302 716 l 1,3,-1
 347 -23 l 1,0,-1
EndSplineSet
EndChar

StartChar: bracketright
Encoding: 93 93 64
Width: 258
Flags: W
LayerCount: 2
Back
Fore
SplineSet
144 739 m 1,0,-1
 338 739 l 1,1,-1
 202 -36 l 1,2,-1
 8 -36 l 1,3,-1
 27 74 l 1,4,-1
 91 74 l 1,5,-1
 186 629 l 1,6,-1
 125 629 l 1,7,-1
 144 739 l 1,0,-1
EndSplineSet
EndChar

StartChar: asciicircum
Encoding: 94 94 65
Width: 374
Flags: W
LayerCount: 2
Back
Fore
SplineSet
117 514 m 1,0,-1
 280 761 l 1,1,-1
 358 761 l 1,2,-1
 439 514 l 1,3,-1
 345 514 l 1,4,-1
 302 650 l 1,5,-1
 210 514 l 1,6,-1
 117 514 l 1,0,-1
EndSplineSet
EndChar

StartChar: underscore
Encoding: 95 95 66
Width: 510
Flags: W
LayerCount: 2
Back
Fore
SplineSet
444 -205 m 1,0,-1
 -6 -205 l 1,1,-1
 13 -98 l 1,2,-1
 463 -98 l 1,3,-1
 444 -205 l 1,0,-1
EndSplineSet
EndChar

StartChar: grave
Encoding: 96 96 67
Width: 263
Flags: W
LayerCount: 2
Back
Fore
SplineSet
229 605 m 1,0,-1
 182 757 l 1,1,-1
 309 757 l 1,2,-1
 320 605 l 1,3,-1
 229 605 l 1,0,-1
EndSplineSet
EndChar

StartChar: a
Encoding: 97 97 68
Width: 435
Flags: W
LayerCount: 2
Back
Fore
SplineSet
320 519 m 1,0,-1
 323 519 l 2,1,2
 359 519 359 519 387 503.5 c 128,-1,3
 415 488 415 488 429 465.5 c 128,-1,4
 443 443 443 443 448.5 420.5 c 128,-1,5
 454 398 454 398 451 380 c 2,6,-1
 409 143 l 2,7,8
 409 140 409 140 408.5 133.5 c 128,-1,9
 408 127 408 127 413 120.5 c 128,-1,10
 418 114 418 114 427 114 c 2,11,-1
 430 114 l 1,12,-1
 410 1 l 1,13,-1
 407 1 l 2,14,15
 355 1 355 1 326 30 c 1,16,17
 284 1 284 1 232 1 c 2,18,-1
 229 1 l 1,19,-1
 249 113 l 1,20,-1
 252 113 l 2,21,22
 265 113 265 113 275.5 122 c 128,-1,23
 286 131 286 131 290 138.5 c 128,-1,24
 294 146 294 146 294 149 c 2,25,-1
 308 227 l 1,26,27
 294 219 294 219 271.5 211.5 c 128,-1,28
 249 204 249 204 230 199 c 128,-1,29
 211 194 211 194 193.5 189.5 c 128,-1,30
 176 185 176 185 171 183 c 0,31,32
 158 177 158 177 156 162 c 2,33,-1
 153 149 l 2,34,35
 147 113 147 113 183 113 c 2,36,-1
 200 113 l 1,37,-1
 180 1 l 1,38,39
 110 1 110 1 73.5 33 c 128,-1,40
 37 65 37 65 45 110 c 2,41,-1
 58 180 l 2,42,43
 62 207 62 207 75 223.5 c 128,-1,44
 88 240 88 240 120 257 c 0,45,46
 136 266 136 266 190.5 282.5 c 128,-1,47
 245 299 245 299 286 316 c 128,-1,48
 327 333 327 333 330 351 c 0,49,50
 330 353 330 353 331 357 c 128,-1,51
 332 361 332 361 332 363 c 0,52,53
 334 375 334 375 334 384.5 c 128,-1,54
 334 394 334 394 326.5 400 c 128,-1,55
 319 406 319 406 303 407 c 1,56,-1
 300 408 l 1,57,-1
 320 519 l 1,0,-1
253 407 m 1,58,-1
 250 407 l 2,59,60
 209 404 209 404 200 353 c 1,61,-1
 200 349 l 1,62,-1
 102 389 l 1,63,-1
 102 391 l 1,64,65
 111 442 111 442 163.5 480.5 c 128,-1,66
 216 519 216 519 270 519 c 2,67,-1
 273 519 l 1,68,-1
 253 407 l 1,58,-1
EndSplineSet
EndChar

StartChar: b
Encoding: 98 98 69
Width: 414
Flags: W
LayerCount: 2
Back
Fore
SplineSet
30 0 m 1,0,-1
 153 699 l 1,1,-1
 278 699 l 1,2,-1
 155 0 l 1,3,-1
 30 0 l 1,0,-1
336 373 m 2,4,5
 336 375 336 375 334.5 380 c 128,-1,6
 333 385 333 385 326 391.5 c 128,-1,7
 319 398 319 398 307 398 c 2,8,-1
 273 398 l 1,9,-1
 294 516 l 1,10,-1
 327 516 l 2,11,12
 363 516 363 516 390.5 501 c 128,-1,13
 418 486 418 486 432 463.5 c 128,-1,14
 446 441 446 441 451.5 418 c 128,-1,15
 457 395 457 395 454 377 c 2,16,-1
 413 141 l 2,17,18
 410 123 410 123 396 100 c 128,-1,19
 382 77 382 77 360.5 54 c 128,-1,20
 339 31 339 31 305.5 15.5 c 128,-1,21
 272 0 272 0 236 0 c 2,22,-1
 203 0 l 1,23,-1
 224 118 l 1,24,-1
 257 118 l 2,25,26
 269 118 269 118 278.5 124.5 c 128,-1,27
 288 131 288 131 291.5 136 c 128,-1,28
 295 141 295 141 295 143 c 2,29,-1
 336 373 l 2,4,5
EndSplineSet
EndChar

StartChar: c
Encoding: 99 99 70
Width: 418
Flags: W
LayerCount: 2
Back
Fore
SplineSet
334 383 m 0,0,1
 332 389 332 389 326 393 c 128,-1,2
 320 397 320 397 315 398 c 2,3,-1
 309 399 l 1,4,-1
 306 399 l 1,5,-1
 303 399 l 1,6,-1
 324 516 l 1,7,-1
 330 516 l 2,8,9
 385 516 385 516 421 473 c 128,-1,10
 457 430 457 430 447 376 c 1,11,-1
 447 372 l 1,12,-1
 328 330 l 1,13,-1
 333 360 l 2,14,15
 336 375 336 375 334 383 c 0,0,1
243 -1 m 1,16,-1
 263 116 l 1,17,-1
 269 116 l 2,18,19
 270 116 270 116 272.5 116.5 c 128,-1,20
 275 117 275 117 279 118 c 128,-1,21
 283 119 283 119 287 120.5 c 128,-1,22
 291 122 291 122 294.5 125 c 128,-1,23
 298 128 298 128 300 132 c 0,24,25
 306 140 306 140 309 156 c 2,26,-1
 314 186 l 1,27,-1
 417 144 l 1,28,-1
 417 140 l 1,29,30
 407 86 407 86 355.5 42.5 c 128,-1,31
 304 -1 304 -1 250 -1 c 2,32,-1
 243 -1 l 1,16,-1
96 377 m 2,33,34
 100 395 100 395 114 417.5 c 128,-1,35
 128 440 128 440 150 462.5 c 128,-1,36
 172 485 172 485 205.5 500.5 c 128,-1,37
 239 516 239 516 276 516 c 2,38,-1
 282 516 l 1,39,-1
 262 400 l 1,40,-1
 256 400 l 2,41,42
 242 400 242 400 232 394 c 128,-1,43
 222 388 222 388 219 383 c 128,-1,44
 216 378 216 378 215 375 c 2,45,-1
 174 141 l 2,46,47
 173 138 173 138 174.5 133 c 128,-1,48
 176 128 176 128 186 121.5 c 128,-1,49
 196 115 196 115 214 115 c 2,50,-1
 219 114 l 1,51,-1
 199 0 l 1,52,-1
 194 0 l 2,53,54
 153 0 153 0 123 15.5 c 128,-1,55
 93 31 93 31 78 54 c 128,-1,56
 63 77 63 77 57.5 100 c 128,-1,57
 52 123 52 123 55 141 c 2,58,-1
 96 377 l 2,33,34
EndSplineSet
EndChar

StartChar: d
Encoding: 100 100 71
Width: 414
Flags: W
LayerCount: 2
Back
Fore
SplineSet
271 516 m 2,0,-1
 301 516 l 1,1,-1
 280 398 l 1,2,-1
 250 398 l 2,3,4
 238 398 238 398 229 391.5 c 128,-1,5
 220 385 220 385 217 380 c 128,-1,6
 214 375 214 375 214 373 c 2,7,-1
 173 143 l 2,8,9
 173 141 173 141 174.5 135.5 c 128,-1,10
 176 130 176 130 183 124 c 128,-1,11
 190 118 190 118 203 118 c 2,12,-1
 231 118 l 1,13,-1
 210 0 l 1,14,-1
 182 0 l 2,15,16
 145 0 145 0 117.5 15.5 c 128,-1,17
 90 31 90 31 76.5 54 c 128,-1,18
 63 77 63 77 57.5 100 c 128,-1,19
 52 123 52 123 55 141 c 2,20,-1
 96 377 l 2,21,22
 100 395 100 395 113.5 418 c 128,-1,23
 127 441 127 441 148.5 463.5 c 128,-1,24
 170 486 170 486 202.5 501 c 128,-1,25
 235 516 235 516 271 516 c 2,0,-1
384 0 m 1,26,-1
 258 0 l 1,27,-1
 381 698 l 1,28,-1
 507 698 l 1,29,-1
 384 0 l 1,26,-1
EndSplineSet
EndChar

StartChar: e
Encoding: 101 101 72
Width: 424
Flags: W
LayerCount: 2
Back
Fore
SplineSet
310 402 m 2,0,-1
 307 402 l 1,1,-1
 327 516 l 1,2,-1
 333 516 l 2,3,4
 387 516 387 516 430 473.5 c 128,-1,5
 473 431 473 431 464 378 c 2,6,-1
 434 208 l 1,7,-1
 185 208 l 1,8,-1
 173 141 l 2,9,10
 173 138 173 138 174 131 c 128,-1,11
 175 124 175 124 182.5 116.5 c 128,-1,12
 190 109 190 109 202 108 c 2,13,-1
 207 108 l 1,14,-1
 188 0 l 1,15,-1
 183 0 l 2,16,17
 146 0 146 0 117.5 15.5 c 128,-1,18
 89 31 89 31 75 54 c 128,-1,19
 61 77 61 77 54.5 100.5 c 128,-1,20
 48 124 48 124 51 141 c 2,21,-1
 93 377 l 2,22,23
 96 394 96 394 110.5 417 c 128,-1,24
 125 440 125 440 147.5 462.5 c 128,-1,25
 170 485 170 485 203.5 500.5 c 128,-1,26
 237 516 237 516 273 516 c 2,27,-1
 278 516 l 1,28,-1
 258 400 l 1,29,-1
 255 400 l 2,30,31
 236 400 236 400 225.5 390 c 128,-1,32
 215 380 215 380 213 369 c 2,33,-1
 206 324 l 1,34,-1
 340 324 l 1,35,-1
 348 369 l 2,36,37
 352 387 352 387 340 395 c 128,-1,38
 328 403 328 403 310 402 c 2,0,-1
236 0 m 1,39,-1
 256 111 l 1,40,-1
 261 111 l 2,41,42
 284 112 284 112 301.5 124.5 c 128,-1,43
 319 137 319 137 325 153 c 2,44,-1
 327 157 l 1,45,-1
 419 120 l 1,46,-1
 418 118 l 2,47,48
 405 86 405 86 376.5 59 c 128,-1,49
 348 32 348 32 312 16 c 128,-1,50
 276 0 276 0 242 0 c 2,51,-1
 236 0 l 1,39,-1
EndSplineSet
EndChar

StartChar: f
Encoding: 102 102 73
Width: 304
Flags: W
LayerCount: 2
Back
Fore
SplineSet
186 552 m 2,0,1
 190 570 190 570 204 593.5 c 128,-1,2
 218 617 218 617 240 640.5 c 128,-1,3
 262 664 262 664 295.5 680 c 128,-1,4
 329 696 329 696 366 696 c 2,5,-1
 427 696 l 1,6,-1
 379 579 l 1,7,-1
 346 579 l 2,8,9
 333 579 333 579 324 572.5 c 128,-1,10
 315 566 315 566 312 560.5 c 128,-1,11
 309 555 309 555 308 552 c 2,12,-1
 302 515 l 1,13,-1
 368 516 l 1,14,-1
 348 400 l 1,15,-1
 282 400 l 1,16,-1
 211 0 l 1,17,-1
 89 0 l 1,18,-1
 160 400 l 1,19,-1
 97 400 l 1,20,-1
 117 516 l 1,21,-1
 180 516 l 1,22,-1
 186 552 l 2,0,1
EndSplineSet
EndChar

StartChar: g
Encoding: 103 103 74
Width: 415
Flags: W
LayerCount: 2
Back
Fore
SplineSet
205 -181 m 2,0,-1
 -6 -181 l 1,1,-1
 41 -69 l 1,2,-1
 222 -69 l 2,3,4
 236 -69 236 -69 246.5 -61.5 c 128,-1,5
 257 -54 257 -54 260.5 -48.5 c 128,-1,6
 264 -43 264 -43 265 -40 c 2,7,-1
 273 3 l 1,8,9
 253 -1 253 -1 234 -1 c 2,10,-1
 231 -1 l 1,11,-1
 250 109 l 1,12,-1
 254 109 l 2,13,14
 268 110 268 110 278.5 117 c 128,-1,15
 289 124 289 124 292.5 130 c 128,-1,16
 296 136 296 136 296 139 c 2,17,-1
 338 374 l 2,18,19
 338 375 338 375 338 377.5 c 128,-1,20
 338 380 338 380 337 383 c 128,-1,21
 336 386 336 386 333.5 389.5 c 128,-1,22
 331 393 331 393 328 396 c 128,-1,23
 325 399 325 399 319 401 c 128,-1,24
 313 403 313 403 305 403 c 2,25,-1
 302 403 l 1,26,-1
 322 516 l 1,27,-1
 325 516 l 2,28,29
 345 516 345 516 362 511 c 1,30,-1
 363 516 l 1,31,-1
 480 516 l 1,32,-1
 382 -40 l 2,33,34
 379 -57 379 -57 365 -80 c 128,-1,35
 351 -103 351 -103 329.5 -126 c 128,-1,36
 308 -149 308 -149 274.5 -165 c 128,-1,37
 241 -181 241 -181 205 -181 c 2,0,-1
280 516 m 2,38,-1
 283 516 l 1,39,-1
 263 403 l 1,40,-1
 260 403 l 2,41,42
 246 403 246 403 235 396 c 128,-1,43
 224 389 224 389 220.5 383.5 c 128,-1,44
 217 378 217 378 216 375 c 2,45,-1
 175 140 l 2,46,47
 174 138 174 138 176 132 c 128,-1,48
 178 126 178 126 186.5 119 c 128,-1,49
 195 112 195 112 209 112 c 2,50,-1
 212 112 l 1,51,-1
 192 -1 l 1,52,-1
 189 -1 l 2,53,54
 152 -1 152 -1 123.5 14.5 c 128,-1,55
 95 30 95 30 81.5 53 c 128,-1,56
 68 76 68 76 62.5 99 c 128,-1,57
 57 122 57 122 60 139 c 2,58,-1
 102 378 l 2,59,60
 105 395 105 395 119 418 c 128,-1,61
 133 441 133 441 154.5 463.5 c 128,-1,62
 176 486 176 486 209.5 501 c 128,-1,63
 243 516 243 516 280 516 c 2,38,-1
EndSplineSet
EndChar

StartChar: h
Encoding: 104 104 75
Width: 421
Flags: W
LayerCount: 2
Back
Fore
SplineSet
145 1 m 1,0,-1
 30 1 l 1,1,-1
 153 698 l 1,2,-1
 267 698 l 1,3,-1
 234 505 l 1,4,-1
 236 506 l 1,5,6
 254 510 254 510 280 511 c 2,7,-1
 283 511 l 1,8,-1
 264 399 l 1,9,-1
 261 399 l 2,10,11
 246 398 246 398 233.5 390 c 128,-1,12
 221 382 221 382 215.5 375.5 c 128,-1,13
 210 369 210 369 209 365 c 2,14,-1
 145 1 l 1,0,-1
328 511 m 1,15,-1
 331 511 l 2,16,17
 401 508 401 508 436 468 c 128,-1,18
 471 428 471 428 461 374 c 2,19,-1
 395 1 l 1,20,-1
 281 1 l 1,21,-1
 345 365 l 2,22,23
 346 369 346 369 344.5 375.5 c 128,-1,24
 343 382 343 382 334.5 389.5 c 128,-1,25
 326 397 326 397 311 399 c 2,26,-1
 308 399 l 1,27,-1
 328 511 l 1,15,-1
EndSplineSet
EndChar

StartChar: i
Encoding: 105 105 76
Width: 199
Flags: W
LayerCount: 2
Back
Fore
SplineSet
283 630 m 0,0,1
 278 601 278 601 252.5 579.5 c 128,-1,2
 227 558 227 558 197 558 c 128,-1,3
 167 558 167 558 149.5 579.5 c 128,-1,4
 132 601 132 601 137 630 c 0,5,6
 141 650 141 650 153.5 666.5 c 128,-1,7
 166 683 166 683 184.5 693 c 128,-1,8
 203 703 203 703 223 703 c 128,-1,9
 243 703 243 703 258 693 c 128,-1,10
 273 683 273 683 280 666.5 c 128,-1,11
 287 650 287 650 283 630 c 0,0,1
161 0 m 1,12,-1
 39 0 l 1,13,-1
 130 516 l 1,14,-1
 252 516 l 1,15,-1
 161 0 l 1,12,-1
EndSplineSet
EndChar

StartChar: j
Encoding: 106 106 77
Width: 194
Flags: W
LayerCount: 2
Back
Fore
SplineSet
152 -38 m 2,0,1
 149 -56 149 -56 135 -80 c 128,-1,2
 121 -104 121 -104 99 -127 c 128,-1,3
 77 -150 77 -150 44 -165.5 c 128,-1,4
 11 -181 11 -181 -25 -181 c 2,5,-1
 -82 -181 l 1,6,-1
 -34 -64 l 1,7,-1
 -7 -64 l 2,8,9
 5 -64 5 -64 14.5 -57 c 128,-1,10
 24 -50 24 -50 27 -45 c 128,-1,11
 30 -40 30 -40 30 -38 c 2,12,-1
 128 516 l 1,13,-1
 250 516 l 1,14,-1
 152 -38 l 2,0,1
281 628.5 m 128,-1,16
 276 599 276 599 250.5 577.5 c 128,-1,17
 225 556 225 556 195 556 c 0,18,19
 176 556 176 556 161 565.5 c 128,-1,20
 146 575 146 575 139 592 c 128,-1,21
 132 609 132 609 135 628 c 0,22,23
 141 658 141 658 166 679.5 c 128,-1,24
 191 701 191 701 221 701 c 128,-1,25
 251 701 251 701 268.5 679.5 c 128,-1,15
 286 658 286 658 281 628.5 c 128,-1,16
EndSplineSet
EndChar

StartChar: k
Encoding: 107 107 78
Width: 452
Flags: W
LayerCount: 2
Back
Fore
SplineSet
155 0 m 1,0,-1
 30 0 l 1,1,-1
 153 698 l 1,2,-1
 278 698 l 1,3,-1
 155 0 l 1,0,-1
296 0 m 1,4,-1
 228 257 l 1,5,-1
 386 514 l 1,6,-1
 519 514 l 1,7,-1
 358 257 l 1,8,-1
 428 0 l 1,9,-1
 296 0 l 1,4,-1
EndSplineSet
EndChar

StartChar: l
Encoding: 108 108 79
Width: 184
Flags: W
LayerCount: 2
Back
Fore
SplineSet
161 0 m 1,0,-1
 30 0 l 1,1,-1
 153 698 l 1,2,-1
 284 698 l 1,3,-1
 161 0 l 1,0,-1
EndSplineSet
EndChar

StartChar: m
Encoding: 109 109 80
Width: 684
Flags: W
LayerCount: 2
Back
Fore
SplineSet
220 372 m 2,0,-1
 154 0 l 1,1,-1
 30 0 l 1,2,-1
 96 377 l 2,3,4
 100 396 100 396 114.5 419.5 c 128,-1,5
 129 443 129 443 152 465.5 c 128,-1,6
 175 488 175 488 209 503.5 c 128,-1,7
 243 519 243 519 281 519 c 2,8,-1
 287 519 l 1,9,-1
 265 398 l 1,10,-1
 259 398 l 2,11,12
 246 398 246 398 236 391.5 c 128,-1,13
 226 385 226 385 223 380 c 128,-1,14
 220 375 220 375 220 372 c 2,0,-1
596 372 m 2,15,16
 596 375 596 375 594.5 380.5 c 128,-1,17
 593 386 593 386 585.5 392 c 128,-1,18
 578 398 578 398 564 398 c 2,19,-1
 558 398 l 1,20,-1
 580 519 l 1,21,-1
 586 519 l 2,22,23
 623 519 623 519 652 503.5 c 128,-1,24
 681 488 681 488 696 465 c 128,-1,25
 711 442 711 442 717.5 418.5 c 128,-1,26
 724 395 724 395 720 377 c 2,27,-1
 654 0 l 1,28,-1
 530 0 l 1,29,-1
 596 372 l 2,15,16
280 0 m 1,30,-1
 346 372 l 2,31,32
 346 375 346 375 344.5 380.5 c 128,-1,33
 343 386 343 386 335 392 c 128,-1,34
 327 398 327 398 313 398 c 2,35,-1
 307 398 l 1,36,-1
 329 519 l 1,37,-1
 335 519 l 2,38,39
 390 519 390 519 428 486 c 1,40,41
 475 519 475 519 533 519 c 2,42,-1
 539 519 l 1,43,-1
 517 398 l 1,44,-1
 511 398 l 2,45,46
 497 398 497 398 487 391.5 c 128,-1,47
 477 385 477 385 473.5 380 c 128,-1,48
 470 375 470 375 470 372 c 2,49,-1
 404 0 l 1,50,-1
 280 0 l 1,30,-1
EndSplineSet
EndChar

StartChar: n
Encoding: 110 110 81
Width: 434
Flags: W
LayerCount: 2
Back
Fore
SplineSet
346 372 m 2,0,1
 346 375 346 375 344.5 380 c 128,-1,2
 343 385 343 385 335 391.5 c 128,-1,3
 327 398 327 398 314 398 c 2,4,-1
 308 398 l 1,5,-1
 329 519 l 1,6,-1
 335 519 l 2,7,8
 373 519 373 519 402 503.5 c 128,-1,9
 431 488 431 488 446 465 c 128,-1,10
 461 442 461 442 467.5 418.5 c 128,-1,11
 474 395 474 395 471 377 c 2,12,-1
 404 0 l 1,13,-1
 280 0 l 1,14,-1
 346 372 l 2,0,1
220 372 m 2,15,-1
 154 0 l 1,16,-1
 30 0 l 1,17,-1
 97 377 l 2,18,19
 100 396 100 396 114.5 419.5 c 128,-1,20
 129 443 129 443 152 466 c 128,-1,21
 175 489 175 489 209.5 504 c 128,-1,22
 244 519 244 519 282 519 c 2,23,-1
 288 519 l 1,24,-1
 267 398 l 1,25,-1
 261 398 l 2,26,27
 255 398 255 398 250 397 c 128,-1,28
 245 396 245 396 241.5 394 c 128,-1,29
 238 392 238 392 234.5 390 c 128,-1,30
 231 388 231 388 228.5 385.5 c 128,-1,31
 226 383 226 383 224.5 381 c 128,-1,32
 223 379 223 379 222 377 c 128,-1,33
 221 375 221 375 220.5 374 c 128,-1,34
 220 373 220 373 220 372 c 2,15,-1
EndSplineSet
EndChar

StartChar: o
Encoding: 111 111 82
Width: 420
Flags: W
LayerCount: 2
Back
Fore
SplineSet
94 376 m 2,0,1
 97 394 97 394 111.5 417 c 128,-1,2
 126 440 126 440 148 462.5 c 128,-1,3
 170 485 170 485 204.5 500.5 c 128,-1,4
 239 516 239 516 277 516 c 2,5,-1
 283 516 l 1,6,-1
 262 398 l 1,7,-1
 256 398 l 2,8,9
 241 398 241 398 230.5 391.5 c 128,-1,10
 220 385 220 385 217 380 c 128,-1,11
 214 375 214 375 214 373 c 2,12,-1
 173 142 l 2,13,14
 173 139 173 139 174.5 134 c 128,-1,15
 176 129 176 129 184.5 123 c 128,-1,16
 193 117 193 117 207 117 c 2,17,-1
 213 117 l 1,18,-1
 192 -1 l 1,19,-1
 186 -1 l 2,20,21
 148 -1 148 -1 119 15 c 128,-1,22
 90 31 90 31 75.5 54 c 128,-1,23
 61 77 61 77 55.5 100 c 128,-1,24
 50 123 50 123 53 141 c 2,25,-1
 94 376 l 2,0,1
303 398 m 1,26,-1
 324 516 l 1,27,-1
 330 516 l 2,28,29
 366 516 366 516 394 500.5 c 128,-1,30
 422 485 422 485 436 462.5 c 128,-1,31
 450 440 450 440 455.5 417 c 128,-1,32
 461 394 461 394 458 376 c 2,33,-1
 417 141 l 2,34,35
 414 123 414 123 400 99.5 c 128,-1,36
 386 76 386 76 364 53 c 128,-1,37
 342 30 342 30 308.5 14.5 c 128,-1,38
 275 -1 275 -1 239 -1 c 2,39,-1
 233 -1 l 1,40,-1
 253 113 l 1,41,-1
 259 113 l 2,42,43
 268 113 268 113 275 116 c 128,-1,44
 282 119 282 119 286.5 122.5 c 128,-1,45
 291 126 291 126 294 130 c 128,-1,46
 297 134 297 134 298.5 136.5 c 128,-1,47
 300 139 300 139 300 140 c 2,48,-1
 341 372 l 2,49,50
 341 375 341 375 339.5 380.5 c 128,-1,51
 338 386 338 386 330.5 392 c 128,-1,52
 323 398 323 398 309 398 c 2,53,-1
 303 398 l 1,26,-1
EndSplineSet
EndChar

StartChar: p
Encoding: 112 112 83
Width: 422
Flags: W
LayerCount: 2
Back
Fore
SplineSet
232 0 m 2,0,-1
 203 0 l 1,1,-1
 224 118 l 1,2,-1
 255 118 l 2,3,4
 297 119 297 119 301 143 c 2,5,-1
 342 372 l 2,6,7
 343 382 343 382 331.5 390 c 128,-1,8
 320 398 320 398 298 398 c 2,9,-1
 266 398 l 1,10,-1
 287 516 l 1,11,-1
 319 516 l 2,12,13
 369 516 369 516 405 492 c 128,-1,14
 441 468 441 468 454 436.5 c 128,-1,15
 467 405 467 405 462 375 c 2,16,-1
 421 139 l 2,17,18
 417 118 417 118 402.5 94.5 c 128,-1,19
 388 71 388 71 365.5 49.5 c 128,-1,20
 343 28 343 28 307.5 14 c 128,-1,21
 272 0 272 0 232 0 c 2,0,-1
121 516 m 1,22,-1
 246 516 l 1,23,-1
 123 -182 l 1,24,-1
 -2 -182 l 1,25,-1
 121 516 l 1,22,-1
EndSplineSet
EndChar

StartChar: q
Encoding: 113 113 84
Width: 416
Flags: W
LayerCount: 2
Back
Fore
SplineSet
171 143 m 2,0,1
 171 141 171 141 172.5 136 c 128,-1,2
 174 131 174 131 183 124.5 c 128,-1,3
 192 118 192 118 209 118 c 2,4,-1
 240 118 l 1,5,-1
 219 0 l 1,6,-1
 190 0 l 2,7,8
 150 0 150 0 120 15 c 128,-1,9
 90 30 90 30 75 52.5 c 128,-1,10
 60 75 60 75 54 98 c 128,-1,11
 48 121 48 121 51 139 c 2,12,-1
 92 375 l 2,13,14
 95 393 95 393 109 416 c 128,-1,15
 123 439 123 439 145 462 c 128,-1,16
 167 485 167 485 201.5 500.5 c 128,-1,17
 236 516 236 516 274 516 c 2,18,-1
 305 516 l 1,19,-1
 285 398 l 1,20,-1
 253 398 l 2,21,22
 239 398 239 398 228.5 391.5 c 128,-1,23
 218 385 218 385 215 380 c 128,-1,24
 212 375 212 375 212 373 c 2,25,-1
 171 143 l 2,0,1
471 516 m 1,26,-1
 354 -182 l 1,27,-1
 230 -182 l 1,28,-1
 347 516 l 1,29,-1
 471 516 l 1,26,-1
EndSplineSet
EndChar

StartChar: r
Encoding: 114 114 85
Width: 326
Flags: W
LayerCount: 2
Back
Fore
SplineSet
133 516 m 1,0,-1
 261 516 l 1,1,-1
 250 454 l 1,2,3
 273 478 273 478 310 497 c 128,-1,4
 347 516 347 516 385 516 c 2,5,-1
 418 516 l 1,6,-1
 369 395 l 1,7,-1
 363 399 l 1,8,9
 314 398 314 398 270 357.5 c 128,-1,10
 226 317 226 317 218 271 c 2,11,-1
 170 0 l 1,12,-1
 42 0 l 1,13,-1
 133 516 l 1,0,-1
EndSplineSet
EndChar

StartChar: s
Encoding: 115 115 86
Width: 418
Flags: W
LayerCount: 2
Back
Fore
SplineSet
45 134 m 1,0,-1
 45 136 l 1,1,-1
 161 157 l 1,2,-1
 161 154 l 2,3,4
 160 144 160 144 165 134.5 c 128,-1,5
 170 125 170 125 179.5 118.5 c 128,-1,6
 189 112 189 112 201 111 c 2,7,-1
 204 110 l 1,8,-1
 183 -5 l 1,9,-1
 180 -5 l 2,10,11
 113 -5 113 -5 75.5 38.5 c 128,-1,12
 38 82 38 82 45 134 c 1,0,-1
454 376 m 1,13,-1
 454 374 l 1,14,-1
 339 355 l 1,15,-1
 339 358 l 2,16,17
 341 376 341 376 331.5 387.5 c 128,-1,18
 322 399 322 399 313 401.5 c 128,-1,19
 304 404 304 404 298 404 c 2,20,-1
 294 404 l 1,21,-1
 315 517 l 1,22,-1
 319 517 l 2,23,24
 386 517 386 517 424.5 472 c 128,-1,25
 463 427 463 427 454 376 c 1,13,-1
254 406 m 1,26,-1
 251 406 l 1,27,28
 208 401 208 401 202 362 c 0,29,30
 201 356 201 356 202.5 350.5 c 128,-1,31
 204 345 204 345 212 338.5 c 128,-1,32
 220 332 220 332 235 325.5 c 128,-1,33
 250 319 250 319 278.5 311 c 128,-1,34
 307 303 307 303 346 296 c 0,35,36
 388 287 388 287 412 252.5 c 128,-1,37
 436 218 436 218 425 160 c 0,38,39
 412 85 412 85 355.5 40 c 128,-1,40
 299 -5 299 -5 227 -5 c 2,41,-1
 224 -5 l 1,42,-1
 244 109 l 1,43,-1
 247 109 l 2,44,45
 257 110 257 110 268 113.5 c 128,-1,46
 279 117 279 117 291.5 127.5 c 128,-1,47
 304 138 304 138 306 152 c 0,48,49
 311 173 311 173 285 186 c 128,-1,50
 259 199 259 199 214 211 c 128,-1,51
 169 223 169 223 152 232 c 0,52,53
 114 252 114 252 98 282.5 c 128,-1,54
 82 313 82 313 92 371 c 0,55,56
 100 418 100 418 134 453 c 128,-1,57
 168 488 168 488 204 502.5 c 128,-1,58
 240 517 240 517 270 517 c 2,59,-1
 273 517 l 1,60,-1
 254 406 l 1,26,-1
EndSplineSet
EndChar

StartChar: t
Encoding: 116 116 87
Width: 324
Flags: W
LayerCount: 2
Back
Fore
SplineSet
266 125 m 2,0,-1
 293 125 l 1,1,-1
 298 0 l 1,2,-1
 243 0 l 2,3,4
 157 1 157 1 130.5 43 c 128,-1,5
 104 85 104 85 119 168 c 2,6,-1
 159 398 l 1,7,-1
 96 398 l 1,8,-1
 117 516 l 1,9,-1
 180 516 l 1,10,-1
 212 700 l 1,11,-1
 334 700 l 1,12,-1
 302 516 l 1,13,-1
 362 516 l 1,14,-1
 341 398 l 1,15,-1
 281 398 l 1,16,-1
 239 159 l 2,17,18
 233 126 233 126 266 125 c 2,0,-1
EndSplineSet
EndChar

StartChar: u
Encoding: 117 117 88
Width: 434
Flags: W
LayerCount: 2
Back
Fore
SplineSet
259 118 m 1,0,-1
 264 118 l 2,1,2
 278 118 278 118 288 124.5 c 128,-1,3
 298 131 298 131 301.5 136 c 128,-1,4
 305 141 305 141 305 144 c 2,5,-1
 371 516 l 1,6,-1
 495 516 l 1,7,-1
 429 139 l 2,8,9
 425 121 425 121 410.5 97.5 c 128,-1,10
 396 74 396 74 373 51 c 128,-1,11
 350 28 350 28 315 12.5 c 128,-1,12
 280 -3 280 -3 242 -3 c 2,13,-1
 237 -3 l 1,14,-1
 259 118 l 1,0,-1
121 516 m 1,15,-1
 245 516 l 1,16,-1
 179 144 l 2,17,18
 179 141 179 141 180.5 135.5 c 128,-1,19
 182 130 182 130 190 124 c 128,-1,20
 198 118 198 118 212 118 c 2,21,-1
 217 118 l 1,22,-1
 195 -3 l 1,23,-1
 190 -3 l 2,24,25
 153 -3 153 -3 123.5 12.5 c 128,-1,26
 94 28 94 28 79 50.5 c 128,-1,27
 64 73 64 73 57.5 96.5 c 128,-1,28
 51 120 51 120 55 139 c 2,29,-1
 121 516 l 1,15,-1
EndSplineSet
EndChar

StartChar: v
Encoding: 118 118 89
Width: 400
Flags: W
LayerCount: 2
Back
Fore
SplineSet
174 0 m 1,0,-1
 107 515 l 1,1,-1
 242 516 l 1,2,-1
 307 120 l 1,3,-1
 243 0 l 1,4,-1
 174 0 l 1,0,-1
360 516 m 1,5,-1
 491 515 l 1,6,-1
 345 208 l 1,7,-1
 333 208 l 1,8,-1
 301 394 l 1,9,-1
 360 516 l 1,5,-1
EndSplineSet
EndChar

StartChar: w
Encoding: 119 119 90
Width: 577
Flags: W
LayerCount: 2
Back
Fore
SplineSet
160 0 m 1,0,-1
 99 515 l 1,1,-1
 235 516 l 1,2,-1
 282 120 l 1,3,-1
 222 0 l 1,4,-1
 160 0 l 1,0,-1
348 0 m 1,5,-1
 281 515 l 1,6,-1
 419 516 l 1,7,-1
 470 120 l 1,8,-1
 412 0 l 1,9,-1
 348 0 l 1,5,-1
534 516 m 1,10,-1
 660 515 l 1,11,-1
 508 208 l 1,12,-1
 500 208 l 1,13,-1
 476 394 l 1,14,-1
 534 516 l 1,10,-1
EndSplineSet
EndChar

StartChar: x
Encoding: 120 120 91
Width: 381
Flags: W
LayerCount: 2
Back
Fore
SplineSet
178 262 m 1,0,-1
 113 516 l 1,1,-1
 238 516 l 1,2,-1
 270 399 l 1,3,-1
 343 515 l 1,4,-1
 469 515 l 1,5,-1
 315 262 l 1,6,-1
 382 0 l 1,7,-1
 257 0 l 1,8,-1
 222 126 l 1,9,-1
 143 0 l 1,10,-1
 18 0 l 1,11,-1
 178 262 l 1,0,-1
EndSplineSet
EndChar

StartChar: y
Encoding: 121 121 92
Width: 383
Flags: W
LayerCount: 2
Back
Fore
SplineSet
138 113 m 1,0,-1
 91 514 l 1,1,-1
 222 515 l 1,2,-1
 246 327 l 2,3,4
 247 328 247 328 247 329 c 2,5,-1
 272 111 l 1,6,-1
 141 -145 l 1,7,-1
 15 -145 l 1,8,-1
 138 113 l 1,0,-1
341 515 m 1,9,-1
 473 514 l 1,10,-1
 315 208 l 1,11,-1
 304 208 l 1,12,-1
 282 393 l 1,13,-1
 341 515 l 1,9,-1
EndSplineSet
EndChar

StartChar: z
Encoding: 122 122 93
Width: 348
Flags: W
LayerCount: 2
Back
Fore
SplineSet
393 400 m 1,0,-1
 190 118 l 1,1,-1
 343 117 l 1,2,-1
 322 0 l 1,3,-1
 26 0 l 1,4,-1
 47 116 l 1,5,-1
 252 394 l 1,6,-1
 96 394 l 1,7,-1
 117 514 l 1,8,-1
 413 514 l 1,9,-1
 393 400 l 1,0,-1
EndSplineSet
EndChar

StartChar: braceleft
Encoding: 123 123 94
Width: 407
Flags: W
LayerCount: 2
Back
Fore
SplineSet
437 735 m 1,0,-1
 419 635 l 1,1,2
 406 635 406 635 396.5 633.5 c 128,-1,3
 387 632 387 632 379 626 c 128,-1,4
 371 620 371 620 365 615.5 c 128,-1,5
 359 611 359 611 353.5 598.5 c 128,-1,6
 348 586 348 586 345 578 c 128,-1,7
 342 570 342 570 337.5 550 c 128,-1,8
 333 530 333 530 330.5 517 c 128,-1,9
 328 504 328 504 323 476 c 0,10,11
 322 471 322 471 322 469 c 2,12,-1
 307 384 l 1,13,-1
 307 383 l 1,14,15
 302 359 302 359 256 348 c 1,16,17
 298 334 298 334 293 304 c 2,18,-1
 276 208 l 1,19,-1
 276 207 l 1,20,21
 260 116 260 116 268.5 88.5 c 128,-1,22
 277 61 277 61 318 61 c 1,23,-1
 300 -38 l 1,24,-1
 282 -38 l 2,25,26
 259 -38 259 -38 244.5 -37 c 128,-1,27
 230 -36 230 -36 210 -31.5 c 128,-1,28
 190 -27 190 -27 178.5 -18 c 128,-1,29
 167 -9 167 -9 155.5 8 c 128,-1,30
 144 25 144 25 140 49 c 128,-1,31
 136 73 136 73 137 109 c 128,-1,32
 138 145 138 145 146 192 c 2,33,-1
 163 290 l 2,34,35
 166 295 166 295 164 301 c 128,-1,36
 162 307 162 307 162 310 c 128,-1,37
 162 313 162 313 158 317.5 c 128,-1,38
 154 322 154 322 151.5 324 c 128,-1,39
 149 326 149 326 143.5 329.5 c 128,-1,40
 138 333 138 333 134 335 c 128,-1,41
 130 337 130 337 123 341 c 128,-1,42
 116 345 116 345 111 348 c 1,43,44
 114 349 114 349 122.5 352.5 c 128,-1,45
 131 356 131 356 133 356.5 c 128,-1,46
 135 357 135 357 142 360 c 128,-1,47
 149 363 149 363 151.5 364.5 c 128,-1,48
 154 366 154 366 159 369 c 128,-1,49
 164 372 164 372 166 374.5 c 128,-1,50
 168 377 168 377 172 381 c 128,-1,51
 176 385 176 385 177.5 388.5 c 128,-1,52
 179 392 179 392 181 397 c 128,-1,53
 183 402 183 402 184 408 c 2,54,-1
 201 504 l 2,55,56
 210 556 210 556 223.5 594.5 c 128,-1,57
 237 633 237 633 255 658 c 128,-1,58
 273 683 273 683 291.5 698.5 c 128,-1,59
 310 714 310 714 335.5 722 c 128,-1,60
 361 730 361 730 383.5 732.5 c 128,-1,61
 406 735 406 735 437 735 c 1,0,-1
EndSplineSet
EndChar

StartChar: bar
Encoding: 124 124 95
Width: 205
Flags: W
LayerCount: 2
Back
Fore
SplineSet
183 754 m 1,0,-1
 288 754 l 1,1,-1
 131 -134 l 1,2,-1
 26 -134 l 1,3,-1
 183 754 l 1,0,-1
EndSplineSet
EndChar

StartChar: braceright
Encoding: 125 125 96
Width: 407
Flags: W
LayerCount: 2
Back
Fore
SplineSet
230 735 m 1,0,1
 256 735 256 735 275 733.5 c 128,-1,2
 294 732 294 732 314.5 726 c 128,-1,3
 335 720 335 720 348 710.5 c 128,-1,4
 361 701 361 701 372.5 683.5 c 128,-1,5
 384 666 384 666 388.5 642 c 128,-1,6
 393 618 393 618 392.5 583 c 128,-1,7
 392 548 392 548 384 504 c 2,8,-1
 367 408 l 2,9,10
 363 384 363 384 373.5 373.5 c 128,-1,11
 384 363 384 363 411 351 c 0,12,13
 416 349 416 349 418 348 c 1,14,15
 412 345 412 345 400 339.5 c 128,-1,16
 388 334 388 334 383 331.5 c 128,-1,17
 378 329 378 329 370 324 c 128,-1,18
 362 319 362 319 358.5 315 c 128,-1,19
 355 311 355 311 351.5 304.5 c 128,-1,20
 348 298 348 298 346 290 c 2,21,-1
 329 192 l 2,22,23
 321 145 321 145 309 109 c 128,-1,24
 297 73 297 73 284.5 49 c 128,-1,25
 272 25 272 25 254.5 8 c 128,-1,26
 237 -9 237 -9 222.5 -18 c 128,-1,27
 208 -27 208 -27 186.5 -31.5 c 128,-1,28
 165 -36 165 -36 150 -37 c 128,-1,29
 135 -38 135 -38 111 -38 c 2,30,-1
 93 -38 l 1,31,-1
 111 61 l 1,32,33
 152 61 152 61 170.5 89 c 128,-1,34
 189 117 189 117 204 207 c 1,35,-1
 205 208 l 1,36,-1
 222 304 l 2,37,38
 227 334 227 334 273 348 c 1,39,40
 255 353 255 353 244 362 c 128,-1,41
 233 371 233 371 236 383 c 2,42,-1
 236 384 l 1,43,-1
 251 469 l 2,44,45
 251 471 251 471 252 476 c 0,46,47
 270 564 270 564 264 599.5 c 128,-1,48
 258 635 258 635 212 635 c 1,49,-1
 230 735 l 1,0,1
EndSplineSet
EndChar

StartChar: asciitilde
Encoding: 126 126 97
Width: 568
Flags: W
LayerCount: 2
Back
Fore
SplineSet
568 281 m 1,0,1
 513 251 513 251 469 241 c 128,-1,2
 425 231 425 231 396 237 c 128,-1,3
 367 243 367 243 341.5 256 c 128,-1,4
 316 269 316 269 293 282.5 c 128,-1,5
 270 296 270 296 244 304 c 128,-1,6
 218 312 218 312 181 305 c 128,-1,7
 144 298 144 298 98 272 c 1,8,-1
 121 405 l 1,9,10
 171 431 171 431 210.5 437.5 c 128,-1,11
 250 444 250 444 276.5 436.5 c 128,-1,12
 303 429 303 429 326.5 415 c 128,-1,13
 350 401 350 401 374 388 c 128,-1,14
 398 375 398 375 426 369 c 128,-1,15
 454 363 454 363 496 373 c 128,-1,16
 538 383 538 383 591 412 c 1,17,-1
 568 281 l 1,0,1
EndSplineSet
EndChar

StartChar: sterling
Encoding: 163 163 98
Width: 520
Flags: W
LayerCount: 2
Back
Fore
SplineSet
463 520 m 1,0,1
 453 584 453 584 400 584 c 0,2,3
 342 584 342 584 330 517 c 2,4,-1
 309 396 l 1,5,-1
 448 396 l 1,6,-1
 429 289 l 1,7,-1
 289 289 l 1,8,-1
 257 108 l 1,9,-1
 481 108 l 1,10,-1
 462 0 l 1,11,-1
 106 0 l 1,12,-1
 157 288 l 1,13,-1
 101 288 l 1,14,-1
 120 395 l 1,15,-1
 176 395 l 1,16,-1
 197 514 l 2,17,18
 211 598 211 598 266.5 651.5 c 128,-1,19
 322 705 322 705 415 705 c 0,20,21
 416 705 416 705 417 705 c 0,22,23
 458 705 458 705 488 691 c 0,24,25
 526 675 526 675 547 641.5 c 128,-1,26
 568 608 568 608 571 570 c 1,27,-1
 463 520 l 1,0,1
EndSplineSet
EndChar

StartChar: yen
Encoding: 165 165 99
Width: 542
Flags: W
LayerCount: 2
Back
Fore
SplineSet
333 698 m 1024,0,-1
196 698 m 1,1,-1
 333 698 l 1,2,-1
 359 485 l 1,3,-1
 456 698 l 1,4,-1
 593 698 l 1,5,-1
 454 408 l 1,6,-1
 564 408 l 1,7,-1
 554 350 l 1,8,-1
 427 350 l 1,9,-1
 403 295 l 1,10,-1
 544 295 l 1,11,-1
 534 236 l 1,12,-1
 382 236 l 1,13,-1
 340 0 l 1,14,-1
 203 0 l 1,15,-1
 245 238 l 1,16,-1
 92 238 l 1,17,-1
 102 295 l 1,18,-1
 245 295 l 1,19,-1
 239 351 l 1,20,-1
 112 351 l 1,21,-1
 122 409 l 1,22,-1
 234 409 l 1,23,-1
 196 698 l 1,1,-1
EndSplineSet
EndChar

StartChar: copyright
Encoding: 169 169 100
Width: 859
Flags: W
LayerCount: 2
Back
Fore
SplineSet
420 44 m 1,0,-1
 403 -49 l 1,1,2
 339 -47 339 -47 280.5 -18.5 c 128,-1,3
 222 10 222 10 179 57.5 c 128,-1,4
 136 105 136 105 116 175.5 c 128,-1,5
 96 246 96 246 108 327 c 2,6,-1
 110 339 l 2,7,8
 120 399 120 399 146.5 454 c 128,-1,9
 173 509 173 509 208 550.5 c 128,-1,10
 243 592 243 592 285.5 625.5 c 128,-1,11
 328 659 328 659 372.5 681 c 128,-1,12
 417 703 417 703 459.5 714.5 c 128,-1,13
 502 726 502 726 540 726 c 1,14,-1
 524 636 l 1,15,16
 458 635 458 635 390 599 c 128,-1,17
 322 563 322 563 268 493.5 c 128,-1,18
 214 424 214 424 199 339 c 0,19,20
 199 338 199 338 198.5 335.5 c 128,-1,21
 198 333 198 333 198 332 c 0,22,23
 180 218 180 218 245.5 133.5 c 128,-1,24
 311 49 311 49 420 44 c 1,0,-1
531 476 m 1,25,-1
 547 566 l 1,26,27
 591 566 591 566 621.5 529 c 128,-1,28
 652 492 652 492 644 446 c 1,29,-1
 550 413 l 1,30,-1
 553 432 l 2,31,32
 556 448 556 448 554 456 c 0,33,34
 553 462 553 462 547 467 c 128,-1,35
 541 472 541 472 536 474 c 2,36,-1
 531 476 l 1,25,-1
482 201 m 1,37,38
 505 207 505 207 513 222 c 0,39,40
 517 229 517 229 520 245 c 2,41,-1
 524 264 l 1,42,-1
 606 232 l 1,43,44
 598 186 598 186 554.5 149 c 128,-1,45
 511 112 511 112 467 112 c 1,46,-1
 482 201 l 1,37,38
512 566 m 1,47,-1
 496 476 l 1,48,49
 483 476 483 476 473 469 c 128,-1,50
 463 462 463 462 459.5 456 c 128,-1,51
 456 450 456 450 456 447 c 2,52,-1
 418 231 l 2,53,54
 417 229 417 229 418 225 c 128,-1,55
 419 221 419 221 421.5 216 c 128,-1,56
 424 211 424 211 431 207 c 128,-1,57
 438 203 438 203 448 203 c 1,58,-1
 432 112 l 1,59,60
 400 112 400 112 376.5 125 c 128,-1,61
 353 138 353 138 342.5 157.5 c 128,-1,62
 332 177 332 177 328.5 196 c 128,-1,63
 325 215 325 215 328 231 c 2,64,-1
 366 447 l 2,65,66
 369 463 369 463 379.5 482 c 128,-1,67
 390 501 390 501 407 520.5 c 128,-1,68
 424 540 424 540 452 553 c 128,-1,69
 480 566 480 566 512 566 c 1,47,-1
455 44 m 1,70,71
 566 49 566 49 661 133.5 c 128,-1,72
 756 218 756 218 779 332 c 0,73,74
 779 333 779 333 779.5 335.5 c 128,-1,75
 780 338 780 338 780 339 c 0,76,77
 791 403 791 403 776.5 459.5 c 128,-1,78
 762 516 762 516 729.5 554 c 128,-1,79
 697 592 697 592 652.5 614 c 128,-1,80
 608 636 608 636 559 636 c 1,81,-1
 575 726 l 1,82,83
 620 726 620 726 666.5 709.5 c 128,-1,84
 713 693 713 693 755 661.5 c 128,-1,85
 797 630 797 630 827 583 c 128,-1,86
 857 536 857 536 869.5 475 c 128,-1,87
 882 414 882 414 869 339 c 2,88,-1
 867 327 l 2,89,90
 853 262 853 262 821 203 c 128,-1,91
 789 144 789 144 746 99.5 c 128,-1,92
 703 55 703 55 651 22 c 128,-1,93
 599 -11 599 -11 544.5 -29 c 128,-1,94
 490 -47 490 -47 438 -49 c 1,95,-1
 455 44 l 1,70,71
EndSplineSet
EndChar

StartChar: registered
Encoding: 174 174 101
Width: 404
Flags: W
LayerCount: 2
Back
Fore
SplineSet
261 396 m 1,0,-1
 254 354 l 1,1,2
 193 355 193 355 151.5 405.5 c 128,-1,3
 110 456 110 456 122 523 c 0,4,5
 122 524 122 524 123 525 c 0,6,7
 130 569 130 569 153.5 604.5 c 128,-1,8
 177 640 177 640 206 660.5 c 128,-1,9
 235 681 235 681 264 692 c 128,-1,10
 293 703 293 703 317 703 c 2,11,-1
 319 703 l 1,12,-1
 312 662 l 1,13,14
 264 662 264 662 218.5 623.5 c 128,-1,15
 173 585 173 585 163 526 c 0,16,17
 154 474 154 474 183 436 c 128,-1,18
 212 398 212 398 261 396 c 1,0,-1
281 396 m 1,19,20
 330 398 330 398 373 436 c 128,-1,21
 416 474 416 474 427 525 c 1,22,-1
 427 527 l 1,23,24
 437 585 437 585 406 623.5 c 128,-1,25
 375 662 375 662 328 662 c 1,26,-1
 335 703 l 1,27,28
 355 703 355 703 376 695.5 c 128,-1,29
 397 688 397 688 416 673.5 c 128,-1,30
 435 659 435 659 448.5 638 c 128,-1,31
 462 617 462 617 467.5 589.5 c 128,-1,32
 473 562 473 562 467 528 c 0,33,34
 467 527 467 527 466.5 525.5 c 128,-1,35
 466 524 466 524 466 523 c 0,36,37
 458 475 458 475 426 436 c 128,-1,38
 394 397 394 397 353.5 376.5 c 128,-1,39
 313 356 313 356 273 354 c 1,40,-1
 281 396 l 1,19,20
302 547 m 1,41,-1
 306 547 l 2,42,43
 330 547 330 547 334 568 c 0,44,45
 336 578 336 578 330.5 584.5 c 128,-1,46
 325 591 325 591 314 591 c 2,47,-1
 310 591 l 1,48,-1
 317 628 l 1,49,50
 347 628 347 628 361 612 c 128,-1,51
 375 596 375 596 371 570 c 0,52,53
 366 542 366 542 344 530 c 1,54,-1
 345 530 l 1,55,56
 359 517 359 517 357 492 c 2,57,-1
 346 431 l 1,58,-1
 311 431 l 1,59,-1
 320 481 l 2,60,61
 323 498 323 498 317.5 504.5 c 128,-1,62
 312 511 312 511 296 511 c 1,63,-1
 302 547 l 1,41,-1
262 627 m 1,64,-1
 301 627 l 1,65,-1
 266 430 l 1,66,-1
 227 430 l 1,67,-1
 262 627 l 1,64,-1
EndSplineSet
EndChar

StartChar: EURO
Encoding: 8364 8364 102
Width: 567
Flags: W
LayerCount: 2
Back
Fore
SplineSet
401 698 m 1,0,-1
 376 558 l 1,1,2
 355 550 355 550 345 542 c 128,-1,3
 335 534 335 534 330.5 523 c 128,-1,4
 326 512 326 512 322 488 c 2,5,-1
 313 436 l 1,6,-1
 485 436 l 1,7,-1
 474 376 l 1,8,-1
 302 376 l 1,9,-1
 292 317 l 1,10,-1
 464 317 l 1,11,-1
 453 258 l 1,12,-1
 281 258 l 1,13,-1
 272 202 l 2,14,15
 270 191 270 191 270 182 c 128,-1,16
 270 173 270 173 271 168 c 128,-1,17
 272 163 272 163 276.5 158.5 c 128,-1,18
 281 154 281 154 283 152.5 c 128,-1,19
 285 151 285 151 292.5 147 c 128,-1,20
 300 143 300 143 303 141 c 2,21,-1
 278 2 l 1,22,23
 250 4 250 4 229 11 c 128,-1,24
 208 18 208 18 193 32 c 128,-1,25
 178 46 178 46 170 57 c 128,-1,26
 162 68 162 68 150 90 c 0,27,28
 125 133 125 133 131 182 c 2,29,-1
 144 258 l 1,30,-1
 95 258 l 1,31,-1
 106 317 l 1,32,-1
 155 317 l 1,33,-1
 165 377 l 1,34,-1
 116 377 l 1,35,-1
 127 436 l 1,36,-1
 176 436 l 1,37,-1
 186 496 l 2,38,39
 199 566 199 566 242 613 c 0,40,41
 316 695 316 695 401 698 c 1,0,-1
461 698 m 1,42,43
 528 697 528 697 576 636 c 0,44,45
 597 610 597 610 604.5 575 c 128,-1,46
 612 540 612 540 608 514 c 1,47,-1
 462 463 l 1,48,-1
 469 501 l 2,49,50
 474 525 474 525 465.5 538 c 128,-1,51
 457 551 457 551 436 558 c 1,52,-1
 461 698 l 1,42,43
338 2 m 1,53,-1
 363 142 l 1,54,55
 387 149 387 149 399.5 162 c 128,-1,56
 412 175 412 175 416 199 c 2,57,-1
 422 237 l 1,58,-1
 550 186 l 1,59,60
 548 174 548 174 542 159.5 c 128,-1,61
 536 145 536 145 527 128.5 c 128,-1,62
 518 112 518 112 504.5 95 c 128,-1,63
 491 78 491 78 475 64 c 0,64,65
 406 3 406 3 338 2 c 1,53,-1
EndSplineSet
EndChar

StartChar: HKD
Encoding: 22291 22291 103
Width: 843
Flags: W
LayerCount: 2
Back
Fore
SplineSet
209 614 m 1,0,-1
 202 573 l 1,1,-1
 193 573 l 1,2,-1
 178 488 l 1,3,-1
 136 488 l 1,4,-1
 173 698 l 1,5,-1
 215 698 l 1,6,-1
 200 614 l 1,7,-1
 209 614 l 1,0,-1
406 698 m 1,8,-1
 448 698 l 1,9,-1
 407 611 l 1,10,-1
 412 488 l 1,11,-1
 370 488 l 1,12,-1
 365 611 l 1,13,-1
 406 698 l 1,8,-1
321 698 m 1,14,-1
 364 698 l 1,15,-1
 327 488 l 1,16,-1
 284 488 l 1,17,-1
 321 698 l 1,14,-1
249 698 m 1,18,-1
 292 698 l 1,19,-1
 255 488 l 1,20,-1
 212 488 l 1,21,-1
 227 573 l 1,22,-1
 218 573 l 1,23,-1
 225 614 l 1,24,-1
 234 614 l 1,25,-1
 249 698 l 1,18,-1
741 428 m 1,26,27
 788 406 788 406 804 394 c 0,28,29
 821 381 821 381 832.5 370.5 c 128,-1,30
 844 360 844 360 856.5 343 c 128,-1,31
 869 326 869 326 874 308 c 128,-1,32
 879 290 879 290 878 264 c 128,-1,33
 877 238 877 238 867 209 c 0,34,35
 844 145 844 145 787.5 90.5 c 128,-1,36
 731 36 731 36 665 12 c 1,37,-1
 644 -47 l 1,38,-1
 574 -47 l 1,39,-1
 589 -3 l 1,40,-1
 635 127 l 1,41,42
 649 129 649 129 665 136 c 128,-1,43
 681 143 681 143 698 160.5 c 128,-1,44
 715 178 715 178 724 203 c 0,45,46
 740 250 740 250 689 280 c 1,47,-1
 741 428 l 1,26,27
799 750 m 1,48,-1
 739 578 l 1,49,-1
 735 568 l 1,50,51
 724 565 724 565 711.5 556.5 c 128,-1,52
 699 548 699 548 689 536.5 c 128,-1,53
 679 525 679 525 675 513 c 0,54,55
 663 478 663 478 695 454 c 1,56,-1
 642 302 l 1,57,58
 609 316 609 316 597 323 c 0,59,60
 573 337 573 337 557.5 352 c 128,-1,61
 542 367 542 367 532 388.5 c 128,-1,62
 522 410 522 410 524 440 c 128,-1,63
 526 470 526 470 539 508 c 0,64,65
 561 571 561 571 606 613.5 c 128,-1,66
 651 656 651 656 704 679 c 1,67,-1
 729 750 l 1,68,-1
 799 750 l 1,48,-1
902 682 m 1,69,70
 936 660 936 660 950.5 619.5 c 128,-1,71
 965 579 965 579 960 553 c 1,72,-1
 815 510 l 1,73,74
 818 524 818 524 816.5 534 c 128,-1,75
 815 544 815 544 811 550.5 c 128,-1,76
 807 557 807 557 802.5 561 c 128,-1,77
 798 565 798 565 794 566 c 2,78,-1
 790 568 l 1,79,-1
 837 700 l 1,80,-1
 855 750 l 1,81,-1
 925 750 l 1,82,-1
 902 682 l 1,69,70
579 124 m 1,83,-1
 518 -47 l 1,84,-1
 448 -47 l 1,85,-1
 469 13 l 1,86,87
 428 35 428 35 412 79 c 128,-1,88
 396 123 396 123 408 158 c 1,89,-1
 551 203 l 1,90,91
 546 186 546 186 547 173.5 c 128,-1,92
 548 161 548 161 553 152 c 128,-1,93
 558 143 558 143 564 137.5 c 128,-1,94
 570 132 570 132 575 130 c 2,95,-1
 580 127 l 1,96,-1
 579 124 l 1,83,-1
EndSplineSet
EndChar

StartChar: NameMe.167
Encoding: 65539 -1 104
Width: 699
Flags: W
LayerCount: 2
Back
Fore
SplineSet
231 698 m 1,0,-1
 224 657 l 1,1,2
 219 656 219 656 214.5 651 c 128,-1,3
 210 646 210 646 209 641 c 0,4,5
 207 631 207 631 213.5 625.5 c 128,-1,6
 220 620 220 620 234.5 615 c 128,-1,7
 249 610 249 610 254 607 c 0,8,9
 270 597 270 597 277 585.5 c 128,-1,10
 284 574 284 574 280 552 c 0,11,12
 276 527 276 527 253 507.5 c 128,-1,13
 230 488 230 488 210 488 c 1,14,-1
 217 527 l 1,15,16
 237 534 237 534 240 551 c 0,17,18
 242 562 242 562 236 568 c 128,-1,19
 230 574 230 574 214.5 579.5 c 128,-1,20
 199 585 199 585 197 587 c 0,21,22
 180 596 180 596 172.5 607.5 c 128,-1,23
 165 619 165 619 169 640 c 0,24,25
 174 669 174 669 194 683.5 c 128,-1,26
 214 698 214 698 231 698 c 1,0,-1
247 698 m 1,27,28
 269 698 269 698 282 680 c 128,-1,29
 295 662 295 662 292 646 c 1,30,-1
 249 638 l 1,31,32
 252 654 252 654 240 658 c 1,33,-1
 247 698 l 1,27,28
194 488 m 1,34,35
 182 488 182 488 172 493.5 c 128,-1,36
 162 499 162 499 156 507.5 c 128,-1,37
 150 516 150 516 147 525.5 c 128,-1,38
 144 535 144 535 146 543 c 1,39,-1
 188 551 l 1,40,41
 187 543 187 543 190 537 c 128,-1,42
 193 531 193 531 197 529 c 2,43,-1
 201 527 l 1,44,-1
 194 488 l 1,34,35
597 428 m 1,45,46
 644 406 644 406 660 394 c 0,47,48
 677 381 677 381 688.5 370.5 c 128,-1,49
 700 360 700 360 712.5 343 c 128,-1,50
 725 326 725 326 730 308 c 128,-1,51
 735 290 735 290 734 264 c 128,-1,52
 733 238 733 238 723 209 c 0,53,54
 700 145 700 145 643.5 90.5 c 128,-1,55
 587 36 587 36 521 12 c 1,56,-1
 500 -47 l 1,57,-1
 430 -47 l 1,58,-1
 445 -3 l 1,59,-1
 491 127 l 1,60,61
 515 130 515 130 541 148.5 c 128,-1,62
 567 167 567 167 580 203 c 0,63,64
 596 250 596 250 545 280 c 1,65,-1
 597 428 l 1,45,46
655 750 m 1,66,-1
 595 578 l 1,67,-1
 591 568 l 1,68,69
 574 563 574 563 555.5 547 c 128,-1,70
 537 531 537 531 531 513 c 0,71,72
 519 478 519 478 551 454 c 1,73,-1
 498 302 l 1,74,75
 465 316 465 316 453 323 c 0,76,77
 429 337 429 337 413.5 352 c 128,-1,78
 398 367 398 367 388 388.5 c 128,-1,79
 378 410 378 410 380 440 c 128,-1,80
 382 470 382 470 395 508 c 0,81,82
 417 571 417 571 462 613.5 c 128,-1,83
 507 656 507 656 560 679 c 1,84,-1
 585 750 l 1,85,-1
 655 750 l 1,66,-1
758 682 m 1,86,87
 792 660 792 660 806.5 619.5 c 128,-1,88
 821 579 821 579 816 553 c 1,89,-1
 671 510 l 1,90,91
 674 524 674 524 672.5 534 c 128,-1,92
 671 544 671 544 667 550.5 c 128,-1,93
 663 557 663 557 658.5 561 c 128,-1,94
 654 565 654 565 650 566 c 2,95,-1
 646 568 l 1,96,-1
 693 700 l 1,97,-1
 711 750 l 1,98,-1
 781 750 l 1,99,-1
 758 682 l 1,86,87
435 124 m 1,100,-1
 374 -47 l 1,101,-1
 304 -47 l 1,102,-1
 325 13 l 1,103,104
 284 35 284 35 268 79 c 128,-1,105
 252 123 252 123 264 158 c 1,106,-1
 407 203 l 1,107,108
 402 186 402 186 403 173.5 c 128,-1,109
 404 161 404 161 409 152 c 128,-1,110
 414 143 414 143 420 137.5 c 128,-1,111
 426 132 426 132 431 130 c 2,112,-1
 436 127 l 1,113,-1
 435 124 l 1,100,-1
EndSplineSet
EndChar

StartChar: quotedbl.alt
Encoding: 65540 -1 105
Width: 359
Flags: W
LayerCount: 2
Back
Fore
SplineSet
237 476 m 1,0,-1
 110 476 l 1,1,-1
 149 700 l 1,2,-1
 276 700 l 1,3,-1
 237 476 l 1,0,-1
417 476 m 1,4,-1
 290 476 l 1,5,-1
 329 700 l 1,6,-1
 456 700 l 1,7,-1
 417 476 l 1,4,-1
EndSplineSet
EndChar

StartChar: TradeMarkSign
Encoding: 8482 8482 106
Width: 437
Flags: W
LayerCount: 2
Back
Fore
SplineSet
291 484 m 1,0,-1
 317 628 l 1,1,-1
 320 628 l 1,2,-1
 346 522 l 1,3,-1
 339 484 l 1,4,-1
 291 484 l 1,0,-1
329 700 m 1,5,-1
 366 700 l 1,6,-1
 398 564 l 1,7,-1
 443 636 l 1,8,-1
 447 636 l 1,9,-1
 428 529 l 1,10,-1
 401 484 l 1,11,-1
 368 484 l 1,12,-1
 324 669 l 1,13,-1
 329 700 l 1,5,-1
471 700 m 1,14,-1
 518 700 l 1,15,-1
 480 484 l 1,16,-1
 433 484 l 1,17,-1
 471 700 l 1,14,-1
306 700 m 1,18,-1
 298 653 l 1,19,-1
 253 653 l 1,20,-1
 223 484 l 1,21,-1
 175 484 l 1,22,-1
 205 653 l 1,23,-1
 159 653 l 1,24,-1
 167 700 l 1,25,-1
 306 700 l 1,18,-1
EndSplineSet
EndChar

StartChar: one
Encoding: 65541 -1 107
Width: 309
Flags: W
LayerCount: 2
Back
Fore
SplineSet
99 499 m 1,0,-1
 43 444 l 1,1,-1
 43 645 l 1,2,-1
 99 701 l 1,3,-1
 104 701 l 1,4,-1
 226 701 l 1,5,-1
 226 0 l 1,6,-1
 99 0 l 1,7,-1
 99 499 l 1,0,-1
EndSplineSet
EndChar

StartChar: two
Encoding: 65542 -1 108
Width: 515
Flags: W
LayerCount: 2
Back
Fore
SplineSet
464 127 m 1,0,-1
 464 0 l 1,1,-1
 63 0 l 1,2,-1
 63 127 l 1,3,-1
 464 127 l 1,0,-1
209 703 m 1,4,-1
 209 577 l 2,5,6
 208 577 208 577 203.5 575 c 128,-1,7
 199 573 199 573 191.5 567.5 c 128,-1,8
 184 562 184 562 177.5 553.5 c 128,-1,9
 171 545 171 545 166 530.5 c 128,-1,10
 161 516 161 516 161 499 c 1,11,-1
 43 524 l 1,12,13
 50 590 50 590 95.5 642 c 128,-1,14
 141 694 141 694 209 703 c 1,4,-1
264 578 m 1,15,-1
 264 704 l 1,16,-1
 271 704 l 2,17,18
 325 704 325 704 366.5 683 c 128,-1,19
 408 662 408 662 429.5 629 c 128,-1,20
 451 596 451 596 461.5 563.5 c 128,-1,21
 472 531 472 531 472 500 c 2,22,-1
 472 497 l 2,23,24
 472 472 472 472 466.5 450.5 c 128,-1,25
 461 429 461 429 455 415.5 c 128,-1,26
 449 402 449 402 433 385.5 c 128,-1,27
 417 369 417 369 410 363 c 128,-1,28
 403 357 403 357 380 340 c 128,-1,29
 357 323 357 323 352 319 c 0,30,31
 254 245 254 245 210 186 c 1,32,-1
 70 186 l 1,33,34
 93 228 93 228 125 265.5 c 128,-1,35
 157 303 157 303 178 321.5 c 128,-1,36
 199 340 199 340 230 363.5 c 128,-1,37
 261 387 261 387 262 388 c 0,38,39
 272 396 272 396 293.5 411 c 128,-1,40
 315 426 315 426 325 434.5 c 128,-1,41
 335 443 335 443 344.5 460.5 c 128,-1,42
 354 478 354 478 354 500 c 2,43,-1
 354 502 l 2,44,45
 354 575 354 575 264 578 c 1,15,-1
209 577 m 1024,46,-1
EndSplineSet
EndChar

StartChar: period
Encoding: 65543 -1 109
Width: 250
Flags: W
LayerCount: 2
Back
Fore
SplineSet
50 53 m 0,0,1
 50 85 50 85 72 107 c 128,-1,2
 94 129 94 129 125 129 c 128,-1,3
 156 129 156 129 178 107 c 128,-1,4
 200 85 200 85 200 53 c 0,5,6
 200 22 200 22 178 0 c 128,-1,7
 156 -22 156 -22 125 -22 c 128,-1,8
 94 -22 94 -22 72 0 c 128,-1,9
 50 22 50 22 50 53 c 0,0,1
EndSplineSet
EndChar

StartChar: quotedbl
Encoding: 65544 -1 110
Width: 407
Flags: W
LayerCount: 2
Back
Fore
SplineSet
177 465 m 1,0,-1
 50 465 l 1,1,-1
 50 736 l 1,2,-1
 177 736 l 1,3,-1
 177 465 l 1,0,-1
357 465 m 1,4,-1
 230 465 l 1,5,-1
 230 736 l 1,6,-1
 357 736 l 1,7,-1
 357 465 l 1,4,-1
EndSplineSet
EndChar

StartChar: plus
Encoding: 65545 -1 111
Width: 475
Flags: W
LayerCount: 2
Back
Fore
SplineSet
425 357 m 1,0,-1
 425 230 l 1,1,-1
 300 230 l 1,2,-1
 300 87 l 1,3,-1
 173 87 l 1,4,-1
 173 230 l 1,5,-1
 50 230 l 1,6,-1
 50 357 l 1,7,-1
 173 357 l 1,8,-1
 173 498 l 1,9,-1
 300 498 l 1,10,-1
 300 357 l 1,11,-1
 425 357 l 1,0,-1
EndSplineSet
EndChar

StartChar: asterisk
Encoding: 65546 -1 112
Width: 591
Flags: W
LayerCount: 2
Back
Fore
SplineSet
352 94 m 1,0,-1
 234 94 l 1,1,-1
 234 237 l 1,2,-1
 119 157 l 1,3,-1
 50 253 l 1,4,-1
 195 353 l 1,5,-1
 50 459 l 1,6,-1
 120 554 l 1,7,-1
 234 471 l 1,8,-1
 234 605 l 1,9,-1
 351 605 l 1,10,-1
 351 467 l 1,11,-1
 471 556 l 1,12,-1
 540 461 l 1,13,-1
 393 354 l 1,14,-1
 541 252 l 1,15,-1
 472 156 l 1,16,-1
 351 238 l 1,17,-1
 352 94 l 1,0,-1
EndSplineSet
EndChar

StartChar: comma
Encoding: 65547 -1 113
Width: 265
Flags: W
LayerCount: 2
Back
Fore
SplineSet
178 -23 m 1,0,-1
 51 -23 l 1,1,-1
 88 129 l 1,2,-1
 215 129 l 1,3,-1
 178 -23 l 1,0,-1
EndSplineSet
EndChar

StartChar: hyphen
Encoding: 65548 -1 114
Width: 416
Flags: W
LayerCount: 2
Back
Fore
SplineSet
366 357 m 1,0,-1
 366 230 l 1,1,-1
 50 230 l 1,2,-1
 50 357 l 1,3,-1
 366 357 l 1,0,-1
EndSplineSet
EndChar

StartChar: slash
Encoding: 65549 -1 115
Width: 401
Flags: W
LayerCount: 2
Back
Fore
SplineSet
50 -23 m 1,0,-1
 225 716 l 1,1,-1
 351 716 l 1,2,-1
 177 -23 l 1,3,-1
 50 -23 l 1,0,-1
EndSplineSet
EndChar

StartChar: three
Encoding: 65550 -1 116
Width: 574
Flags: W
LayerCount: 2
Back
Fore
SplineSet
167 537 m 1,0,-1
 61 600 l 1,1,2
 119 698 119 698 230 698 c 1,3,-1
 230 572 l 1,4,5
 188 569 188 569 167 537 c 1,0,-1
289 122 m 1,6,7
 320 122 320 122 342 146 c 128,-1,8
 364 170 364 170 364 201 c 0,9,10
 364 238 364 238 342.5 262 c 128,-1,11
 321 286 321 286 288 286 c 1,12,-1
 288 410 l 1,13,14
 364 419 364 419 364 499 c 0,15,16
 364 536 364 536 341 555 c 128,-1,17
 318 574 318 574 291 574 c 2,18,-1
 287 574 l 1,19,-1
 287 698 l 1,20,21
 379 696 379 696 433.5 634.5 c 128,-1,22
 488 573 488 573 488 508 c 0,23,24
 488 460 488 460 475 422 c 128,-1,25
 462 384 462 384 448.5 368 c 128,-1,26
 435 352 435 352 426 350 c 1,27,28
 450 334 450 334 469.5 292.5 c 128,-1,29
 489 251 489 251 489 199 c 0,30,31
 489 113 489 113 424.5 56.5 c 128,-1,32
 360 0 360 0 292 0 c 2,33,-1
 290 0 l 1,34,-1
 289 122 l 1,6,7
167 160 m 1,35,36
 188 128 188 128 230 125 c 1,37,-1
 230 -1 l 1,38,39
 119 -1 119 -1 61 97 c 1,40,-1
 167 160 l 1,35,36
EndSplineSet
EndChar

StartChar: zero
Encoding: 65551 -1 117
Width: 1024
Flags: W
LayerCount: 2
Back
Fore
SplineSet
404 698 m 1,0,-1
 404 573 l 1,1,2
 346 559 346 559 346 398 c 2,3,4
 346 398 346 398 346 339 c 0,5,6
 346 279 346 279 348.5 242.5 c 128,-1,7
 351 206 351 206 364 168 c 128,-1,8
 377 130 377 130 403 124 c 1,9,-1
 403 0 l 1,10,11
 374 1 374 1 346 16 c 128,-1,12
 318 31 318 31 288 66.5 c 128,-1,13
 258 102 258 102 239.5 176 c 128,-1,14
 221 250 221 250 221 353 c 0,15,16
 221 526 221 526 274.5 610 c 128,-1,17
 328 694 328 694 404 698 c 1,0,-1
464 698 m 1,18,19
 540 694 540 694 593.5 610 c 128,-1,20
 647 526 647 526 647 353 c 0,21,22
 647 250 647 250 628.5 176 c 128,-1,23
 610 102 610 102 580 66.5 c 128,-1,24
 550 31 550 31 522 16 c 128,-1,25
 494 1 494 1 465 0 c 1,26,-1
 465 124 l 1,27,28
 491 130 491 130 504 168 c 128,-1,29
 517 206 517 206 519.5 242.5 c 128,-1,30
 522 279 522 279 522 339 c 2,31,-1
 522 398 l 2,32,33
 522 559 522 559 464 573 c 1,34,-1
 464 698 l 1,18,19
EndSplineSet
EndChar

StartChar: quotesingle
Encoding: 65552 -1 118
Width: 227
Flags: W
LayerCount: 2
Back
Fore
SplineSet
177 465 m 1,0,-1
 50 465 l 1,1,-1
 50 736 l 1,2,-1
 177 736 l 1,3,-1
 177 465 l 1,0,-1
EndSplineSet
EndChar

StartChar: ampersand
Encoding: 65553 -1 119
Width: 760
Flags: W
LayerCount: 2
Back
Fore
SplineSet
307 576 m 1,0,1
 281 567 281 567 281 534 c 0,2,3
 281 522 281 522 284.5 512.5 c 128,-1,4
 288 503 288 503 291.5 499.5 c 128,-1,5
 295 496 295 496 300.5 492 c 128,-1,6
 306 488 306 488 307 487 c 2,7,-1
 307 267 l 1,8,-1
 283 295 l 1,9,10
 245 274 245 274 226 254 c 128,-1,11
 207 234 207 234 207 202 c 128,-1,12
 207 170 207 170 234.5 151.5 c 128,-1,13
 262 133 262 133 307 133 c 1,14,-1
 307 1 l 1,15,16
 179 1 179 1 114.5 57.5 c 128,-1,17
 50 114 50 114 50 212 c 0,18,19
 50 275 50 275 94 323.5 c 128,-1,20
 138 372 138 372 201 402 c 1,21,22
 181 422 181 422 162.5 459.5 c 128,-1,23
 144 497 144 497 144 526 c 0,24,25
 144 595 144 595 186 639.5 c 128,-1,26
 228 684 228 684 307 700 c 1,27,-1
 307 576 l 1,0,1
367 698 m 1,28,29
 527 670 527 670 527 518 c 0,30,31
 527 466 527 466 492.5 423.5 c 128,-1,32
 458 381 458 381 413 359 c 1,33,-1
 481 278 l 1,34,35
 499 307 499 307 505 343 c 1,36,-1
 644 343 l 1,37,38
 631 252 631 252 570 178 c 1,39,-1
 713 0 l 1,40,-1
 519 0 l 1,41,-1
 467 70 l 1,42,43
 424 30 424 30 367 14 c 1,44,-1
 367 166 l 1,45,46
 373 170 373 170 382 178 c 1,47,-1
 367 196 l 1,48,-1
 367 484 l 2,49,50
 368 485 368 485 371 487.5 c 128,-1,51
 374 490 374 490 375.5 491 c 128,-1,52
 377 492 377 492 380 495 c 128,-1,53
 383 498 383 498 384.5 500 c 128,-1,54
 386 502 386 502 388 505.5 c 128,-1,55
 390 509 390 509 391 512.5 c 128,-1,56
 392 516 392 516 393 521 c 128,-1,57
 394 526 394 526 394 531 c 0,58,59
 394 550 394 550 388.5 560.5 c 128,-1,60
 383 571 383 571 367 580 c 1,61,-1
 367 698 l 1,28,29
EndSplineSet
EndChar

StartChar: parenleft
Encoding: 65555 -1 121
Width: 262
Flags: W
LayerCount: 2
Back
Fore
SplineSet
212 735 m 1,0,-1
 213 648 l 1,1,2
 182 630 182 630 168 601.5 c 128,-1,3
 154 573 154 573 153 521 c 2,4,-1
 153 208 l 1,5,-1
 153 202 l 2,6,7
 153 134 153 134 168 102 c 128,-1,8
 183 70 183 70 213 51 c 1,9,-1
 213 -37 l 1,10,11
 114 4 114 4 82 56 c 128,-1,12
 50 108 50 108 50 189 c 2,13,-1
 50 510 l 2,14,15
 50 609 50 609 89 655.5 c 128,-1,16
 128 702 128 702 212 735 c 1,0,-1
EndSplineSet
EndChar

StartChar: parenright
Encoding: 65556 -1 122
Width: 264
Flags: W
LayerCount: 2
Back
Fore
SplineSet
50 735 m 1,0,1
 134 702 134 702 173 655.5 c 128,-1,2
 212 609 212 609 213 510 c 2,3,-1
 213 189 l 2,4,5
 212 107 212 107 180.5 55.5 c 128,-1,6
 149 4 149 4 50 -37 c 1,7,-1
 50 51 l 1,8,9
 80 70 80 70 95 102 c 128,-1,10
 110 134 110 134 110 202 c 2,11,-1
 110 208 l 1,12,-1
 110 521 l 2,13,14
 109 573 109 573 95 601.5 c 128,-1,15
 81 630 81 630 50 648 c 1,16,-1
 50 735 l 1,0,1
EndSplineSet
EndChar

StartChar: exclam
Encoding: 65557 -1 123
Width: 329
Flags: W
LayerCount: 2
Back
Fore
SplineSet
88 53 m 0,0,1
 88 85 88 85 110 107 c 128,-1,2
 132 129 132 129 163 129 c 128,-1,3
 194 129 194 129 216 107 c 128,-1,4
 238 85 238 85 238 53 c 0,5,6
 238 22 238 22 216 0 c 128,-1,7
 194 -22 194 -22 163 -22 c 128,-1,8
 132 -22 132 -22 110 0 c 128,-1,9
 88 22 88 22 88 53 c 0,0,1
100 166 m 1,10,-1
 100 700 l 1,11,-1
 229 700 l 1,12,-1
 229 166 l 1,13,-1
 100 166 l 1,10,-1
EndSplineSet
EndChar

StartChar: numbersign
Encoding: 65558 -1 124
Width: 788
Flags: W
LayerCount: 2
Back
Fore
SplineSet
285 22 m 1,0,-1
 164 22 l 1,1,-1
 191 176 l 1,2,-1
 51 176 l 1,3,-1
 76 297 l 1,4,-1
 213 297 l 1,5,-1
 231 404 l 1,6,-1
 85 404 l 1,7,-1
 107 525 l 1,8,-1
 253 525 l 1,9,-1
 280 682 l 1,10,-1
 401 682 l 1,11,-1
 373 524 l 1,12,-1
 479 524 l 1,13,-1
 506 682 l 1,14,-1
 627 682 l 1,15,-1
 599 524 l 1,16,-1
 737 524 l 1,17,-1
 718 403 l 1,18,-1
 578 404 l 1,19,-1
 559 296 l 1,20,-1
 702 296 l 1,21,-1
 684 175 l 1,22,-1
 538 176 l 1,23,-1
 511 22 l 1,24,-1
 391 22 l 1,25,-1
 417 176 l 1,26,-1
 312 176 l 1,27,-1
 285 22 l 1,0,-1
457 404 m 1,28,-1
 352 404 l 1,29,-1
 333 297 l 1,30,-1
 439 296 l 1,31,-1
 457 404 l 1,28,-1
EndSplineSet
EndChar
